G04 ================== begin FILE IDENTIFICATION RECORD ==================*
G04 Layout Name:  C:/IMPORTANT/432C_ANDRONE_Ionut_P1/allegro/ANDRONE_Ionut_PCB.brd*
G04 Film Name:    BOTTOM*
G04 File Format:  Gerber RS274X*
G04 File Origin:  Cadence Allegro 16.6-2015-S059*
G04 Origin Date:  Fri Dec 17 22:48:47 2021*
G04 *
G04 Layer:  ETCH/BOTTOM*
G04 Layer:  PIN/BOTTOM*
G04 Layer:  VIA CLASS/BOTTOM*
G04 *
G04 Offset:    (0.0000 0.0000)*
G04 Mirror:    No*
G04 Mode:      Positive*
G04 Rotation:  0*
G04 FullContactRelief:  No*
G04 UndefLineWidth:     0.1000*
G04 ================== end FILE IDENTIFICATION RECORD ====================*
%FSLAX25Y25*MOMM*%
%IR0*IPPOS*OFA0.00000B0.00000*MIA0B0*SFA1.00000B1.00000*%
%ADD10C,.6*%
%ADD11C,.4*%
%ADD12C,.5*%
%ADD13C,.75*%
G75*
%LPD*%
G75*
G54D10*
X716000Y176000D03*
Y437000D03*
X718000Y2379000D03*
X1454000Y687340D03*
X1038660D03*
X1323000Y1579000D03*
X1587000Y2343620D03*
X1571000Y3145000D03*
X2211000Y1580000D03*
X2339000Y1464000D03*
X1693000Y1867000D03*
X1893380Y2343620D03*
X1884000Y3145000D03*
X3169000Y177000D03*
X2772720Y1069280D03*
X3169000Y840000D03*
X2979000Y1059000D03*
X2679000Y1545000D03*
X2848000Y1714000D03*
X2977860Y1695860D03*
X3114000Y1650000D03*
X2610000Y2313000D03*
X2977860Y2335140D03*
X2514640Y2424640D03*
X2605280Y3349720D03*
X2514640Y2920640D03*
X3484000Y1650000D03*
X3221000Y2233000D03*
X3570000Y2785000D03*
X3221000Y2809000D03*
G54D11*
G01X716000Y437000D02*
Y176000D01*
G01X1587000Y2343620D02*
X1893380D01*
G01X1884000Y3145000D02*
X1571000D01*
G01X1693000Y1867000D02*
X2171000D01*
X2211000Y1827000D01*
Y1580000D01*
G01X2979000Y1059000D02*
Y1614720D01*
X2977860Y1615860D01*
Y1695860D01*
G01Y2335140D02*
Y1695860D01*
G01X3484000Y1650000D02*
X3114000D01*
G01X2514640Y2920640D02*
Y2424640D01*
G01X3169000Y840000D02*
Y177000D01*
G54D12*
G01X1038660Y687340D02*
X1454000D01*
G01X2772720Y1069280D02*
Y1451280D01*
X2679000Y1545000D01*
G01X2848000Y1714000D02*
Y2268000D01*
X2798000Y2318000D01*
X2700000D01*
X2695000Y2313000D01*
X2610000D01*
G01X2605280Y2893000D02*
Y2402720D01*
X2610000Y2398000D01*
Y2313000D01*
G01X2605280Y3349720D02*
Y2893000D01*
G01D02*
X2613780Y2901500D01*
X3453500D01*
X3570000Y2785000D01*
G54D13*
G01X1323000Y1579000D02*
X1317000Y1585000D01*
X1039000D01*
X964000Y1660000D01*
Y2304000D01*
X889000Y2379000D01*
X718000D01*
G01X1323000Y1579000D02*
X1559000Y1343000D01*
X1960000D01*
X2081000Y1464000D01*
X2339000D01*
G01X3221000Y2809000D02*
Y2233000D01*
M02*
