G04 ================== begin FILE IDENTIFICATION RECORD ==================*
G04 Layout Name:  C:/IMPORTANT/432C_ANDRONE_Ionut_P1/allegro/ANDRONE_Ionut_PCB.brd*
G04 Film Name:    FAB*
G04 File Format:  Gerber RS274X*
G04 File Origin:  Cadence Allegro 16.6-2015-S059*
G04 Origin Date:  Fri Dec 17 22:48:47 2021*
G04 *
G04 Layer:  MANUFACTURING/NCDRILL_LEGEND*
G04 Layer:  MANUFACTURING/NCDRILL_FIGURE*
G04 Layer:  MANUFACTURING/XSECTION_CHART*
G04 Layer:  MANUFACTURING/NCLEGEND-1-2*
G04 Layer:  DRAWING FORMAT/OUTLINE*
G04 *
G04 Offset:    (0.0000 0.0000)*
G04 Mirror:    No*
G04 Mode:      Positive*
G04 Rotation:  0*
G04 FullContactRelief:  No*
G04 UndefLineWidth:     0.1000*
G04 ================== end FILE IDENTIFICATION RECORD ====================*
%FSLAX25Y25*MOMM*%
%IR0*IPPOS*OFA0.00000B0.00000*MIA0B0*SFA1.00000B1.00000*%
%AMMACRO10*
1,1,.1,0.0,.5*
20,1,.1,0.0,.5,.5,-.5,0.0*
1,1,.1,.5,-.5*
20,1,.1,.5,-.5,-.5,-.5,0.0*
1,1,.1,-.5,-.5*
20,1,.1,-.5,-.5,0.0,.5,0.0*
1,1,.1,0.0,.5*
1,1,.1,.25,0.0*
20,1,.1,.25,0.0,-.25,0.0,0.0*
1,1,.1,-.25,0.0*
1,1,.1,0.0,.25*
20,1,.1,0.0,.25,0.0,-.25,0.0*
1,1,.1,0.0,-.25*
%
%ADD10MACRO10*%
%ADD11C,.1*%
%ADD12C,.2*%
G75*
%LPD*%
G75*
G36*
G01X-5632880Y4882720D02*
Y4823320D01*
X-5569380D01*
Y-126680D01*
X-5632880D01*
Y-186080D01*
X-5251880D01*
Y-126680D01*
X-5315380D01*
Y4823320D01*
X-5251880D01*
Y4882720D01*
X-5632880D01*
G37*
G36*
G01X-6140880Y-186080D02*
Y-126680D01*
X-4616880D01*
Y-186080D01*
X-6140880D01*
G37*
G36*
G01Y4823320D02*
Y4882720D01*
X-4616880D01*
Y4823320D01*
X-6140880D01*
G37*
G54D10*
X716000Y176000D03*
Y437000D03*
X718000Y2379000D03*
X1454000Y687340D03*
X1038660D03*
X1323000Y1579000D03*
X1587000Y2343620D03*
X1571000Y3145000D03*
X2211000Y1580000D03*
X2339000Y1464000D03*
X1693000Y1867000D03*
X1893380Y2343620D03*
X1884000Y3145000D03*
X3169000Y177000D03*
X2772720Y1069280D03*
X3169000Y840000D03*
X2979000Y1059000D03*
X2679000Y1545000D03*
X2848000Y1714000D03*
X2977860Y1695860D03*
X3114000Y1650000D03*
X2610000Y2313000D03*
X2977860Y2335140D03*
X2514640Y2424640D03*
X2605280Y3349720D03*
X2514640Y2920640D03*
X3484000Y1650000D03*
X3221000Y2233000D03*
X3570000Y2785000D03*
X3221000Y2809000D03*
X5465730Y585500D03*
G54D11*
G01X4603520Y1061750D02*
Y1379250D01*
X4753140D01*
G01X4698010Y1225800D02*
X4603520D01*
G01X4946050Y1379250D02*
X5040530D01*
G01X4993290D02*
Y1061750D01*
G01X4946050D02*
X5040530D01*
G01X5331870Y1220500D02*
X5410620D01*
Y1125250D01*
X5386990Y1093490D01*
X5359430Y1072330D01*
X5320060Y1061750D01*
X5280690Y1072330D01*
X5253130Y1093490D01*
X5229510Y1125250D01*
X5213760Y1162290D01*
X5205880Y1204620D01*
Y1241670D01*
X5213760Y1273410D01*
X5229510Y1310460D01*
X5253130Y1342210D01*
X5276750Y1363370D01*
X5308250Y1379250D01*
X5335810D01*
X5367300Y1368670D01*
X5390930Y1347500D01*
G01X5536600Y1379250D02*
Y1151710D01*
X5552340Y1104070D01*
X5583840Y1072330D01*
X5623210Y1061750D01*
X5662580Y1072330D01*
X5694080Y1104070D01*
X5709820Y1151710D01*
Y1379250D01*
G01X5859430Y1061750D02*
Y1379250D01*
X5957850D01*
X5989350Y1363370D01*
X6009040Y1342210D01*
X6016910Y1299870D01*
X6009040Y1257540D01*
X5985410Y1231090D01*
X5957850Y1215200D01*
X5859430D01*
G01X5957850D02*
X6016910Y1061750D01*
G01X6331870D02*
X6174390D01*
Y1379250D01*
X6331870D01*
G01X6268880Y1225800D02*
X6174390D01*
G01X6115330Y1696750D02*
X6213760Y2014250D01*
X6312190Y1696750D01*
G01X6276750Y1807870D02*
X6150760D01*
G01X6449980Y2014250D02*
Y1696750D01*
X6607460D01*
G01X6764940Y2014250D02*
Y1696750D01*
X6922420D01*
G01X7386990Y2014250D02*
Y1786710D01*
X7402730Y1739070D01*
X7434230Y1707330D01*
X7473600Y1696750D01*
X7512970Y1707330D01*
X7544470Y1739070D01*
X7560210Y1786710D01*
Y2014250D01*
G01X7698010Y1696750D02*
Y2014250D01*
X7879110Y1696750D01*
Y2014250D01*
G01X8056280D02*
X8150760D01*
G01X8103520D02*
Y1696750D01*
G01X8056280D02*
X8150760D01*
G01X8418480Y2014250D02*
Y1696750D01*
G01X8327930Y2014250D02*
X8509030D01*
G01X8650760Y1739070D02*
X8682260Y1712620D01*
X8717690Y1696750D01*
X8749190D01*
X8780680Y1712620D01*
X8804310Y1739070D01*
X8816120Y1776130D01*
X8808250Y1813160D01*
X8788560Y1844910D01*
X8753120Y1866090D01*
X8705880Y1876670D01*
X8678320Y1897830D01*
X8666510Y1934870D01*
X8674390Y1971920D01*
X8694070Y1998370D01*
X8721630Y2014250D01*
X8749190D01*
X8776750Y2003670D01*
X8800370Y1977210D01*
G01X9264930Y1696750D02*
X9363360Y2014250D01*
X9461790Y1696750D01*
G01X9426350Y1807870D02*
X9300360D01*
G01X9599580Y1696750D02*
Y2014250D01*
X9698000D01*
X9729500Y1998370D01*
X9749190Y1977210D01*
X9757060Y1934870D01*
X9749190Y1892540D01*
X9725560Y1866090D01*
X9698000Y1850200D01*
X9599580D01*
G01X9698000D02*
X9757060Y1696750D01*
G01X10072020D02*
X9914540D01*
Y2014250D01*
X10072020D01*
G01X10009030Y1860800D02*
X9914540D01*
G01X10575960Y2014250D02*
X10670440D01*
G01X10623200D02*
Y1696750D01*
G01X10575960D02*
X10670440D01*
G01X10847610D02*
Y2014250D01*
X11028710Y1696750D01*
Y2014250D01*
G01X11465710Y1696750D02*
Y2014250D01*
X11568080Y1749670D01*
X11670450Y2014250D01*
Y1696750D01*
G01X11835800Y2014250D02*
X11930280D01*
G01X11883040D02*
Y1696750D01*
G01X11835800D02*
X11930280D01*
G01X12119260Y2014250D02*
Y1696750D01*
X12276740D01*
G01X12434220Y2014250D02*
Y1696750D01*
X12591700D01*
G01X12780680Y2014250D02*
X12875160D01*
G01X12827920D02*
Y1696750D01*
G01X12780680D02*
X12875160D01*
G01X13040510D02*
Y2014250D01*
X13142880Y1749670D01*
X13245250Y2014250D01*
Y1696750D01*
G01X13536580D02*
X13379100D01*
Y2014250D01*
X13536580D01*
G01X13473590Y1860800D02*
X13379100D01*
G01X13772800Y2014250D02*
Y1696750D01*
G01X13682250Y2014250D02*
X13863350D01*
G01X14166500Y1696750D02*
X14009020D01*
Y2014250D01*
X14166500D01*
G01X14103510Y1860800D02*
X14009020D01*
G01X14323980Y1696750D02*
Y2014250D01*
X14422400D01*
X14453900Y1998370D01*
X14473590Y1977210D01*
X14481460Y1934870D01*
X14473590Y1892540D01*
X14449960Y1866090D01*
X14422400Y1850200D01*
X14323980D01*
G01X14422400D02*
X14481460Y1696750D01*
G01X14635000Y1739070D02*
X14666500Y1712620D01*
X14701930Y1696750D01*
X14733430D01*
X14764920Y1712620D01*
X14788550Y1739070D01*
X14800360Y1776130D01*
X14792490Y1813160D01*
X14772800Y1844910D01*
X14737360Y1866090D01*
X14690120Y1876670D01*
X14662560Y1897830D01*
X14650750Y1934870D01*
X14658630Y1971920D01*
X14678310Y1998370D01*
X14705870Y2014250D01*
X14733430D01*
X14760990Y2003670D01*
X14784610Y1977210D01*
G01X6442110Y2346750D02*
Y2664250D01*
X6520840D01*
X6552340Y2648370D01*
X6575960Y2627210D01*
X6595650Y2595460D01*
X6611400Y2558410D01*
X6615330Y2505500D01*
X6611400Y2452580D01*
X6595650Y2415540D01*
X6575960Y2383780D01*
X6552340Y2362620D01*
X6520840Y2346750D01*
X6442110D01*
G01X6764940D02*
Y2664250D01*
X6863360D01*
X6894860Y2648370D01*
X6914550Y2627210D01*
X6922420Y2584870D01*
X6914550Y2542540D01*
X6890920Y2516090D01*
X6863360Y2500200D01*
X6764940D01*
G01X6863360D02*
X6922420Y2346750D01*
G01X7111400Y2664250D02*
X7205880D01*
G01X7158640D02*
Y2346750D01*
G01X7111400D02*
X7205880D01*
G01X7394860Y2664250D02*
Y2346750D01*
X7552340D01*
G01X7709820Y2664250D02*
Y2346750D01*
X7867300D01*
G01X8505090Y2637790D02*
X8481470Y2653670D01*
X8453920Y2664250D01*
X8422420D01*
X8386980Y2648370D01*
X8359430Y2621920D01*
X8339740Y2590160D01*
X8323990Y2537250D01*
X8320050Y2489620D01*
X8327930Y2442000D01*
X8339740Y2410250D01*
X8363360Y2378490D01*
X8390920Y2357330D01*
X8418480Y2346750D01*
X8446040D01*
X8473600Y2357330D01*
X8497220Y2373200D01*
X8516910Y2394360D01*
G01X8650760Y2346750D02*
Y2664250D01*
G01X8816120D02*
Y2346750D01*
G01Y2505500D02*
X8650760D01*
G01X8949970Y2346750D02*
X9048400Y2664250D01*
X9146830Y2346750D01*
G01X9111390Y2457870D02*
X8985400D01*
G01X9284620Y2346750D02*
Y2664250D01*
X9383040D01*
X9414540Y2648370D01*
X9434230Y2627210D01*
X9442100Y2584870D01*
X9434230Y2542540D01*
X9410600Y2516090D01*
X9383040Y2500200D01*
X9284620D01*
G01X9383040D02*
X9442100Y2346750D01*
G01X9678320Y2664250D02*
Y2346750D01*
G01X9587770Y2664250D02*
X9768870D01*
G01X9993280Y2336170D02*
X9985400Y2341460D01*
Y2352040D01*
X9993280Y2357330D01*
X10001160Y2352040D01*
Y2341460D01*
X9993280Y2336170D01*
G01Y2479030D02*
X9985400Y2484330D01*
Y2494910D01*
X9993280Y2500200D01*
X10001160Y2494910D01*
Y2484330D01*
X9993280Y2479030D01*
G01X10623200Y2664250D02*
Y2346750D01*
G01X10532650Y2664250D02*
X10713750D01*
G01X10938160Y2346750D02*
X10906660Y2352040D01*
X10879110Y2373200D01*
X10855480Y2404960D01*
X10839730Y2442000D01*
X10831860Y2484330D01*
Y2526670D01*
X10839730Y2569000D01*
X10855480Y2606040D01*
X10879110Y2637790D01*
X10906660Y2658960D01*
X10938160Y2664250D01*
X10969650Y2658960D01*
X10997210Y2637790D01*
X11020840Y2606040D01*
X11036590Y2569000D01*
X11044460Y2526670D01*
Y2484330D01*
X11036590Y2442000D01*
X11020840Y2404960D01*
X10997210Y2373200D01*
X10969650Y2352040D01*
X10938160Y2346750D01*
G01X11174380D02*
Y2664250D01*
X11268870D01*
X11300360Y2648370D01*
X11323990Y2611330D01*
X11331860Y2569000D01*
X11323990Y2526670D01*
X11304300Y2494910D01*
X11268870Y2479030D01*
X11174380D01*
G01X11883040Y2664250D02*
Y2346750D01*
G01X11827920Y2558410D02*
X11938160D01*
G01X12198000Y2346750D02*
X12174380Y2352040D01*
X12150760Y2373200D01*
X12135000Y2410250D01*
X12127130Y2452580D01*
X12135000Y2494910D01*
X12150760Y2531960D01*
X12174380Y2553120D01*
X12198000Y2558410D01*
X12221620Y2553120D01*
X12245240Y2531960D01*
X12260990Y2494910D01*
X12264930Y2452580D01*
X12260990Y2410250D01*
X12245240Y2373200D01*
X12221620Y2352040D01*
X12198000Y2346750D01*
G01X12859410Y2516090D02*
X12875160Y2531960D01*
X12886970Y2558410D01*
X12894850Y2595460D01*
X12886970Y2627210D01*
X12871230Y2648370D01*
X12843670Y2664250D01*
X12737370D01*
Y2346750D01*
X12867290D01*
X12894850Y2367910D01*
X12910600Y2399670D01*
X12918470Y2436710D01*
X12910600Y2473740D01*
X12886970Y2505500D01*
X12859410Y2516090D01*
X12737370D01*
G01X13142880Y2346750D02*
X13111380Y2352040D01*
X13083830Y2373200D01*
X13060200Y2404960D01*
X13044450Y2442000D01*
X13036580Y2484330D01*
Y2526670D01*
X13044450Y2569000D01*
X13060200Y2606040D01*
X13083830Y2637790D01*
X13111380Y2658960D01*
X13142880Y2664250D01*
X13174370Y2658960D01*
X13201930Y2637790D01*
X13225560Y2606040D01*
X13241310Y2569000D01*
X13249180Y2526670D01*
Y2484330D01*
X13241310Y2442000D01*
X13225560Y2404960D01*
X13201930Y2373200D01*
X13174370Y2352040D01*
X13142880Y2346750D01*
G01X13457840Y2664250D02*
Y2346750D01*
G01X13367290Y2664250D02*
X13548390D01*
G01X13772800D02*
Y2346750D01*
G01X13682250Y2664250D02*
X13863350D01*
G01X14087760Y2346750D02*
X14056260Y2352040D01*
X14028710Y2373200D01*
X14005080Y2404960D01*
X13989330Y2442000D01*
X13981460Y2484330D01*
Y2526670D01*
X13989330Y2569000D01*
X14005080Y2606040D01*
X14028710Y2637790D01*
X14056260Y2658960D01*
X14087760Y2664250D01*
X14119250Y2658960D01*
X14146810Y2637790D01*
X14170440Y2606040D01*
X14186190Y2569000D01*
X14194060Y2526670D01*
Y2484330D01*
X14186190Y2442000D01*
X14170440Y2404960D01*
X14146810Y2373200D01*
X14119250Y2352040D01*
X14087760Y2346750D01*
G01X14300350D02*
Y2664250D01*
X14402720Y2399670D01*
X14505090Y2664250D01*
Y2346750D01*
G01X8453910Y1104070D02*
X8485410Y1077620D01*
X8520840Y1061750D01*
X8552340D01*
X8583830Y1077620D01*
X8607460Y1104070D01*
X8619270Y1141130D01*
X8611400Y1178160D01*
X8591710Y1209910D01*
X8556270Y1231090D01*
X8509030Y1241670D01*
X8481470Y1262830D01*
X8469660Y1299870D01*
X8477540Y1336920D01*
X8497220Y1363370D01*
X8524780Y1379250D01*
X8552340D01*
X8579900Y1368670D01*
X8603520Y1342210D01*
G01X8804310Y1379250D02*
X8898790D01*
G01X8851550D02*
Y1061750D01*
G01X8804310D02*
X8898790D01*
G01X9091700Y1379250D02*
X9241320D01*
X9091700Y1061750D01*
X9241320D01*
G01X9560210D02*
X9402730D01*
Y1379250D01*
X9560210D01*
G01X9497220Y1225800D02*
X9402730D01*
G01X8694070Y744250D02*
X8662570Y733670D01*
X8638950Y707210D01*
X8623200Y675460D01*
X8611390Y633120D01*
X8607460Y585500D01*
X8611390Y537870D01*
X8623200Y495540D01*
X8638950Y463780D01*
X8662570Y437330D01*
X8694070Y426750D01*
X8725560Y437330D01*
X8749190Y463780D01*
X8764940Y495540D01*
X8776750Y537870D01*
X8780680Y585500D01*
X8776750Y633120D01*
X8764940Y675460D01*
X8749190Y707210D01*
X8725560Y733670D01*
X8694070Y744250D01*
G01X9009030Y416170D02*
X9001150Y421460D01*
Y432040D01*
X9009030Y437330D01*
X9016910Y432040D01*
Y421460D01*
X9009030Y416170D01*
G01X9371230Y426750D02*
Y744250D01*
X9225560Y516710D01*
X9422420D01*
G01X12158630Y1061750D02*
Y1379250D01*
X12253120D01*
X12284610Y1363370D01*
X12308240Y1326330D01*
X12316110Y1284000D01*
X12308240Y1241670D01*
X12288550Y1209910D01*
X12253120Y1194030D01*
X12158630D01*
G01X12473590Y1379250D02*
Y1061750D01*
X12631070D01*
G01X12768860D02*
X12867290Y1379250D01*
X12965720Y1061750D01*
G01X12930280Y1172870D02*
X12804290D01*
G01X13182250Y1379250D02*
Y1061750D01*
G01X13091700Y1379250D02*
X13272800D01*
G01X13575950Y1061750D02*
X13418470D01*
Y1379250D01*
X13575950D01*
G01X13512960Y1225800D02*
X13418470D01*
G01X13725560Y1061750D02*
Y1379250D01*
X13804290D01*
X13835790Y1363370D01*
X13859410Y1342210D01*
X13879100Y1310460D01*
X13894850Y1273410D01*
X13898780Y1220500D01*
X13894850Y1167580D01*
X13879100Y1130540D01*
X13859410Y1098780D01*
X13835790Y1077620D01*
X13804290Y1061750D01*
X13725560D01*
G01X12158630Y426750D02*
Y744250D01*
X12253120D01*
X12284610Y728370D01*
X12308240Y691330D01*
X12316110Y649000D01*
X12308240Y606670D01*
X12288550Y574910D01*
X12253120Y559030D01*
X12158630D01*
G01X12473590Y744250D02*
Y426750D01*
X12631070D01*
G01X12768860D02*
X12867290Y744250D01*
X12965720Y426750D01*
G01X12930280Y537870D02*
X12804290D01*
G01X13182250Y744250D02*
Y426750D01*
G01X13091700Y744250D02*
X13272800D01*
G01X13575950Y426750D02*
X13418470D01*
Y744250D01*
X13575950D01*
G01X13512960Y590800D02*
X13418470D01*
G01X13725560Y426750D02*
Y744250D01*
X13804290D01*
X13835790Y728370D01*
X13859410Y707210D01*
X13879100Y675460D01*
X13894850Y638410D01*
X13898780Y585500D01*
X13894850Y532580D01*
X13879100Y495540D01*
X13859410Y463780D01*
X13835790Y442620D01*
X13804290Y426750D01*
X13725560D01*
G01X15308230Y1061750D02*
X15276730Y1067040D01*
X15249180Y1088200D01*
X15225550Y1119960D01*
X15209800Y1157000D01*
X15201930Y1199330D01*
Y1241670D01*
X15209800Y1284000D01*
X15225550Y1321040D01*
X15249180Y1352790D01*
X15276730Y1373960D01*
X15308230Y1379250D01*
X15339720Y1373960D01*
X15367280Y1352790D01*
X15390910Y1321040D01*
X15406660Y1284000D01*
X15414530Y1241670D01*
Y1199330D01*
X15406660Y1157000D01*
X15390910Y1119960D01*
X15367280Y1088200D01*
X15339720Y1067040D01*
X15308230Y1061750D01*
G01X15339720Y1146420D02*
X15386970Y1061750D01*
G01X15623190Y1379250D02*
Y1061750D01*
G01X15532640Y1379250D02*
X15713740D01*
G01X15938150Y1061750D02*
Y1204620D01*
X15859410Y1379250D01*
G01X16016890D02*
X15938150Y1204620D01*
G01X15379100Y490250D02*
X15402710Y453200D01*
X15434210Y432040D01*
X15469650Y426750D01*
X15501150Y432040D01*
X15532640Y458490D01*
X15552320Y490250D01*
X15556260Y522000D01*
X15548390Y559030D01*
X15520830Y585500D01*
X15493270Y596090D01*
X15457830D01*
G01X15493270D02*
X15516890Y611960D01*
X15536580Y638410D01*
X15544450Y670160D01*
X15536580Y701920D01*
X15516890Y728370D01*
X15481460Y744250D01*
X15446030Y738960D01*
X15410590Y717790D01*
G01X15780670Y744250D02*
X15749170Y733670D01*
X15725550Y707210D01*
X15709800Y675460D01*
X15697990Y633120D01*
X15694060Y585500D01*
X15697990Y537870D01*
X15709800Y495540D01*
X15725550Y463780D01*
X15749170Y437330D01*
X15780670Y426750D01*
X15812160Y437330D01*
X15835790Y463780D01*
X15851540Y495540D01*
X15863350Y537870D01*
X15867280Y585500D01*
X15863350Y633120D01*
X15851540Y675460D01*
X15835790Y707210D01*
X15812160Y733670D01*
X15780670Y744250D01*
G01X-6140880Y-126680D02*
Y4823320D01*
X-4616880D01*
Y-126680D01*
X-6140880D01*
G01X4324000Y268000D02*
Y2823000D01*
X16607440D01*
Y268000D01*
X4324000D01*
G54D12*
G01X-6598710Y-636670D02*
Y-536670D01*
X-6572050D01*
X-6561380Y-541670D01*
X-6553380Y-548340D01*
X-6546710Y-558340D01*
X-6541380Y-570010D01*
X-6540050Y-586670D01*
X-6541380Y-603340D01*
X-6546710Y-615000D01*
X-6553380Y-625010D01*
X-6561380Y-631670D01*
X-6572050Y-636670D01*
X-6598710D01*
G01X-6447470D02*
X-6500810D01*
Y-536670D01*
X-6447470D01*
G01X-6468810Y-585000D02*
X-6500810D01*
G01X-6406900Y-623340D02*
X-6396230Y-631670D01*
X-6384230Y-636670D01*
X-6373570D01*
X-6362900Y-631670D01*
X-6354900Y-623340D01*
X-6350900Y-611670D01*
X-6353570Y-600010D01*
X-6360230Y-590000D01*
X-6372230Y-583340D01*
X-6388230Y-580000D01*
X-6397570Y-573340D01*
X-6401570Y-561670D01*
X-6398900Y-550000D01*
X-6392230Y-541670D01*
X-6382900Y-536670D01*
X-6373570D01*
X-6364230Y-540000D01*
X-6356230Y-548340D01*
G01X-6299660Y-536670D02*
X-6267660D01*
G01X-6283660D02*
Y-636670D01*
G01X-6299660D02*
X-6267660D01*
G01X-6180420Y-586670D02*
X-6153750D01*
Y-616670D01*
X-6161750Y-626670D01*
X-6171090Y-633340D01*
X-6184420Y-636670D01*
X-6197750Y-633340D01*
X-6207090Y-626670D01*
X-6215090Y-616670D01*
X-6220420Y-605000D01*
X-6223090Y-591670D01*
Y-580000D01*
X-6220420Y-570010D01*
X-6215090Y-558340D01*
X-6207090Y-548340D01*
X-6199090Y-541670D01*
X-6188420Y-536670D01*
X-6179090D01*
X-6168420Y-540000D01*
X-6160420Y-546670D01*
G01X-6123850Y-636670D02*
Y-536670D01*
X-6062510Y-636670D01*
Y-536670D01*
G01X-5873370Y-545000D02*
X-5881370Y-540000D01*
X-5890700Y-536670D01*
X-5901370D01*
X-5913370Y-541670D01*
X-5922700Y-550000D01*
X-5929370Y-560000D01*
X-5934700Y-576670D01*
X-5936030Y-591670D01*
X-5933370Y-606670D01*
X-5929370Y-616670D01*
X-5921370Y-626670D01*
X-5912030Y-633340D01*
X-5902700Y-636670D01*
X-5893370D01*
X-5884030Y-633340D01*
X-5876030Y-628340D01*
X-5869370Y-621670D01*
G01X-5834130Y-636670D02*
Y-536670D01*
X-5800790D01*
X-5790130Y-541670D01*
X-5783460Y-548340D01*
X-5780790Y-561670D01*
X-5783460Y-575000D01*
X-5791460Y-583340D01*
X-5800790Y-588340D01*
X-5834130D01*
G01X-5800790D02*
X-5780790Y-636670D01*
G01X-5712220D02*
X-5722890Y-635000D01*
X-5732220Y-628340D01*
X-5740220Y-618340D01*
X-5745550Y-606670D01*
X-5748220Y-593340D01*
Y-580000D01*
X-5745550Y-566670D01*
X-5740220Y-555000D01*
X-5732220Y-545000D01*
X-5722890Y-538340D01*
X-5712220Y-536670D01*
X-5701550Y-538340D01*
X-5692220Y-545000D01*
X-5684220Y-555000D01*
X-5678890Y-566670D01*
X-5676220Y-580000D01*
Y-593340D01*
X-5678890Y-606670D01*
X-5684220Y-618340D01*
X-5692220Y-628340D01*
X-5701550Y-635000D01*
X-5712220Y-636670D01*
G01X-5644980Y-623340D02*
X-5634310Y-631670D01*
X-5622310Y-636670D01*
X-5611650D01*
X-5600980Y-631670D01*
X-5592980Y-623340D01*
X-5588980Y-611670D01*
X-5591650Y-600010D01*
X-5598310Y-590000D01*
X-5610310Y-583340D01*
X-5626310Y-580000D01*
X-5635650Y-573340D01*
X-5639650Y-561670D01*
X-5636980Y-550000D01*
X-5630310Y-541670D01*
X-5620980Y-536670D01*
X-5611650D01*
X-5602310Y-540000D01*
X-5594310Y-548340D01*
G01X-5549740Y-623340D02*
X-5539070Y-631670D01*
X-5527070Y-636670D01*
X-5516410D01*
X-5505740Y-631670D01*
X-5497740Y-623340D01*
X-5493740Y-611670D01*
X-5496410Y-600010D01*
X-5503070Y-590000D01*
X-5515070Y-583340D01*
X-5531070Y-580000D01*
X-5540410Y-573340D01*
X-5544410Y-561670D01*
X-5541740Y-550000D01*
X-5535070Y-541670D01*
X-5525740Y-536670D01*
X-5516410D01*
X-5507070Y-540000D01*
X-5499070Y-548340D01*
G01X-5359260Y-623340D02*
X-5348590Y-631670D01*
X-5336590Y-636670D01*
X-5325930D01*
X-5315260Y-631670D01*
X-5307260Y-623340D01*
X-5303260Y-611670D01*
X-5305930Y-600010D01*
X-5312590Y-590000D01*
X-5324590Y-583340D01*
X-5340590Y-580000D01*
X-5349930Y-573340D01*
X-5353930Y-561670D01*
X-5351260Y-550000D01*
X-5344590Y-541670D01*
X-5335260Y-536670D01*
X-5325930D01*
X-5316590Y-540000D01*
X-5308590Y-548340D01*
G01X-5209350Y-636670D02*
X-5262690D01*
Y-536670D01*
X-5209350D01*
G01X-5230690Y-585000D02*
X-5262690D01*
G01X-5111450Y-545000D02*
X-5119450Y-540000D01*
X-5128780Y-536670D01*
X-5139450D01*
X-5151450Y-541670D01*
X-5160780Y-550000D01*
X-5167450Y-560000D01*
X-5172780Y-576670D01*
X-5174110Y-591670D01*
X-5171450Y-606670D01*
X-5167450Y-616670D01*
X-5159450Y-626670D01*
X-5150110Y-633340D01*
X-5140780Y-636670D01*
X-5131450D01*
X-5122110Y-633340D01*
X-5114110Y-628340D01*
X-5107450Y-621670D01*
G01X-5045540Y-536670D02*
Y-636670D01*
G01X-5076210Y-536670D02*
X-5014870D01*
G01X-4966300D02*
X-4934300D01*
G01X-4950300D02*
Y-636670D01*
G01X-4966300D02*
X-4934300D01*
G01X-4855060D02*
X-4865730Y-635000D01*
X-4875060Y-628340D01*
X-4883060Y-618340D01*
X-4888390Y-606670D01*
X-4891060Y-593340D01*
Y-580000D01*
X-4888390Y-566670D01*
X-4883060Y-555000D01*
X-4875060Y-545000D01*
X-4865730Y-538340D01*
X-4855060Y-536670D01*
X-4844390Y-538340D01*
X-4835060Y-545000D01*
X-4827060Y-555000D01*
X-4821730Y-566670D01*
X-4819060Y-580000D01*
Y-593340D01*
X-4821730Y-606670D01*
X-4827060Y-618340D01*
X-4835060Y-628340D01*
X-4844390Y-635000D01*
X-4855060Y-636670D01*
G01X-4790490D02*
Y-536670D01*
X-4729150Y-636670D01*
Y-536670D01*
G01X-4540010Y-545000D02*
X-4548010Y-540000D01*
X-4557340Y-536670D01*
X-4568010D01*
X-4580010Y-541670D01*
X-4589340Y-550000D01*
X-4596010Y-560000D01*
X-4601340Y-576670D01*
X-4602670Y-591670D01*
X-4600010Y-606670D01*
X-4596010Y-616670D01*
X-4588010Y-626670D01*
X-4578670Y-633340D01*
X-4569340Y-636670D01*
X-4560010D01*
X-4550670Y-633340D01*
X-4542670Y-628340D01*
X-4536010Y-621670D01*
G01X-4502100Y-636670D02*
Y-536670D01*
G01X-4446100D02*
Y-636670D01*
G01Y-586670D02*
X-4502100D01*
G01X-4412190Y-636670D02*
X-4378860Y-536670D01*
X-4345530Y-636670D01*
G01X-4357530Y-601670D02*
X-4400190D01*
G01X-4310290Y-636670D02*
Y-536670D01*
X-4276950D01*
X-4266290Y-541670D01*
X-4259620Y-548340D01*
X-4256950Y-561670D01*
X-4259620Y-575000D01*
X-4267620Y-583340D01*
X-4276950Y-588340D01*
X-4310290D01*
G01X-4276950D02*
X-4256950Y-636670D01*
G01X-4188380Y-536670D02*
Y-636670D01*
G01X-4219050Y-536670D02*
X-4157710D01*
G01X-6657000Y-670000D02*
X-6577000D01*
G01X-6561760D02*
X-6481760D01*
G01X-6466520D02*
X-6386520D01*
G01X-6371280D02*
X-6291280D01*
G01X-6276040D02*
X-6196040D01*
G01X-6180800D02*
X-6100800D01*
G01X-6085560D02*
X-6005560D01*
G01X-5990320D02*
X-5910320D01*
G01X-5895080D02*
X-5815080D01*
G01X-5799840D02*
X-5719840D01*
G01X-5704600D02*
X-5624600D01*
G01X-5609360D02*
X-5529360D01*
G01X-5514120D02*
X-5434120D01*
G01X-5418880D02*
X-5338880D01*
G01X-5323640D02*
X-5243640D01*
G01X-5228400D02*
X-5148400D01*
G01X-5133160D02*
X-5053160D01*
G01X-5037920D02*
X-4957920D01*
G01X-4942680D02*
X-4862680D01*
G01X-4847440D02*
X-4767440D01*
G01X-4752200D02*
X-4672200D01*
G01X-4656960D02*
X-4576960D01*
G01X-4561720D02*
X-4481720D01*
G01X-4466480D02*
X-4386480D01*
G01X-4371240D02*
X-4291240D01*
G01X-4276000D02*
X-4196000D01*
G01X-4180760D02*
X-4100760D01*
G01X-6474140Y-736670D02*
Y-836670D01*
G01X-6504810Y-736670D02*
X-6443470D01*
G01X-6378900Y-836670D02*
X-6389570Y-835000D01*
X-6398900Y-828340D01*
X-6406900Y-818340D01*
X-6412230Y-806670D01*
X-6414900Y-793340D01*
Y-780000D01*
X-6412230Y-766670D01*
X-6406900Y-755000D01*
X-6398900Y-745000D01*
X-6389570Y-738340D01*
X-6378900Y-736670D01*
X-6368230Y-738340D01*
X-6358900Y-745000D01*
X-6350900Y-755000D01*
X-6345570Y-766670D01*
X-6342900Y-780000D01*
Y-793340D01*
X-6345570Y-806670D01*
X-6350900Y-818340D01*
X-6358900Y-828340D01*
X-6368230Y-835000D01*
X-6378900Y-836670D01*
G01X-6283660Y-736670D02*
Y-836670D01*
G01X-6314330Y-736670D02*
X-6252990D01*
G01X-6221750Y-836670D02*
X-6188420Y-736670D01*
X-6155090Y-836670D01*
G01X-6167090Y-801670D02*
X-6209750D01*
G01X-6119850Y-736670D02*
Y-836670D01*
X-6066510D01*
G01X-5902700Y-736670D02*
Y-836670D01*
G01X-5933370Y-736670D02*
X-5872030D01*
G01X-5835460Y-836670D02*
Y-736670D01*
G01X-5779460D02*
Y-836670D01*
G01Y-786670D02*
X-5835460D01*
G01X-5728220Y-736670D02*
X-5696220D01*
G01X-5712220D02*
Y-836670D01*
G01X-5728220D02*
X-5696220D01*
G01X-5587650Y-745000D02*
X-5595650Y-740000D01*
X-5604980Y-736670D01*
X-5615650D01*
X-5627650Y-741670D01*
X-5636980Y-750000D01*
X-5643650Y-760000D01*
X-5648980Y-776670D01*
X-5650310Y-791670D01*
X-5647650Y-806670D01*
X-5643650Y-816670D01*
X-5635650Y-826670D01*
X-5626310Y-833340D01*
X-5616980Y-836670D01*
X-5607650D01*
X-5598310Y-833340D01*
X-5590310Y-828340D01*
X-5583650Y-821670D01*
G01X-5551070Y-836670D02*
Y-736670D01*
G01X-5500410D02*
X-5551070Y-798340D01*
G01X-5492410Y-836670D02*
X-5528410Y-770010D01*
G01X-5457170Y-836670D02*
Y-736670D01*
X-5395830Y-836670D01*
Y-736670D01*
G01X-5304590Y-836670D02*
X-5357930D01*
Y-736670D01*
X-5304590D01*
G01X-5325930Y-785000D02*
X-5357930D01*
G01X-5264020Y-823340D02*
X-5253350Y-831670D01*
X-5241350Y-836670D01*
X-5230690D01*
X-5220020Y-831670D01*
X-5212020Y-823340D01*
X-5208020Y-811670D01*
X-5210690Y-800010D01*
X-5217350Y-790000D01*
X-5229350Y-783340D01*
X-5245350Y-780000D01*
X-5254690Y-773340D01*
X-5258690Y-761670D01*
X-5256020Y-750000D01*
X-5249350Y-741670D01*
X-5240020Y-736670D01*
X-5230690D01*
X-5221350Y-740000D01*
X-5213350Y-748340D01*
G01X-5168780Y-823340D02*
X-5158110Y-831670D01*
X-5146110Y-836670D01*
X-5135450D01*
X-5124780Y-831670D01*
X-5116780Y-823340D01*
X-5112780Y-811670D01*
X-5115450Y-800010D01*
X-5122110Y-790000D01*
X-5134110Y-783340D01*
X-5150110Y-780000D01*
X-5159450Y-773340D01*
X-5163450Y-761670D01*
X-5160780Y-750000D01*
X-5154110Y-741670D01*
X-5144780Y-736670D01*
X-5135450D01*
X-5126110Y-740000D01*
X-5118110Y-748340D01*
G01X-4950300Y-836670D02*
Y-736670D01*
X-4966300Y-756670D01*
G01Y-836670D02*
X-4934300D01*
G01X-4855060Y-840000D02*
X-4857730Y-838340D01*
Y-835000D01*
X-4855060Y-833340D01*
X-4852390Y-835000D01*
Y-838340D01*
X-4855060Y-840000D01*
G01X-4789150Y-821670D02*
X-4781150Y-830000D01*
X-4771820Y-835000D01*
X-4759820Y-836670D01*
X-4747820Y-833340D01*
X-4738490Y-826670D01*
X-4731820Y-815000D01*
X-4730490Y-801670D01*
X-4733150Y-788340D01*
X-4739820Y-780000D01*
X-4749150Y-773340D01*
X-4758490Y-771670D01*
X-4767820Y-773340D01*
X-4779820Y-780000D01*
X-4775820Y-736670D01*
X-4739820D01*
G01X-4693910Y-816670D02*
X-4685910Y-828340D01*
X-4675250Y-835000D01*
X-4663250Y-836670D01*
X-4652580Y-835000D01*
X-4641910Y-826670D01*
X-4635250Y-816670D01*
X-4633910Y-806670D01*
X-4636580Y-795010D01*
X-4645910Y-786670D01*
X-4655250Y-783340D01*
X-4667250D01*
G01X-4655250D02*
X-4647250Y-778340D01*
X-4640580Y-770010D01*
X-4637910Y-760000D01*
X-4640580Y-750000D01*
X-4647250Y-741670D01*
X-4659250Y-736670D01*
X-4671250Y-738340D01*
X-4683250Y-745000D01*
G01X-4594670Y-795010D02*
X-4585340Y-783340D01*
X-4577340Y-776670D01*
X-4566670Y-773340D01*
X-4557340Y-776670D01*
X-4550670Y-783340D01*
X-4545340Y-793340D01*
X-4544010Y-805000D01*
X-4545340Y-815000D01*
X-4550670Y-825010D01*
X-4558670Y-833340D01*
X-4568010Y-836670D01*
X-4578670Y-833340D01*
X-4588010Y-823340D01*
X-4593340Y-808340D01*
X-4594670Y-791670D01*
X-4592010Y-770010D01*
X-4588010Y-758340D01*
X-4581340Y-746670D01*
X-4572010Y-738340D01*
X-4562670Y-736670D01*
X-4553340Y-740000D01*
X-4546670Y-748340D01*
G01X-4413530Y-836670D02*
Y-736670D01*
X-4378860Y-820000D01*
X-4344190Y-736670D01*
Y-836670D01*
G01X-4318290D02*
Y-736670D01*
X-4283620Y-820000D01*
X-4248950Y-736670D01*
Y-836670D01*
G01X-5442380Y5022720D02*
X-5542380D01*
X-5522380Y5006720D01*
G01X-5442380D02*
Y5038720D01*
G01X-5475710Y5100630D02*
Y5135290D01*
G01X-5525710Y5187870D02*
X-5535710Y5195870D01*
X-5540710Y5205200D01*
X-5542380Y5215870D01*
X-5539050Y5229200D01*
X-5530710Y5238530D01*
X-5520710Y5241200D01*
X-5510710Y5239870D01*
X-5502380Y5234530D01*
X-5485710Y5207870D01*
X-5474050Y5195870D01*
X-5457380Y5187870D01*
X-5442380Y5185200D01*
Y5241200D01*
G01X-4508310Y-160010D02*
Y-260010D01*
X-4454970D01*
G01X-4411730Y-176680D02*
X-4403730Y-166680D01*
X-4394400Y-161680D01*
X-4383730Y-160010D01*
X-4370400Y-163340D01*
X-4361070Y-171680D01*
X-4358400Y-181680D01*
X-4359730Y-191680D01*
X-4365070Y-200010D01*
X-4391730Y-216680D01*
X-4403730Y-228340D01*
X-4411730Y-245010D01*
X-4414400Y-260010D01*
X-4358400D01*
G01X-4291160Y-263340D02*
X-4293830Y-261680D01*
Y-258340D01*
X-4291160Y-256680D01*
X-4288490Y-258340D01*
Y-261680D01*
X-4291160Y-263340D01*
G01Y-218350D02*
X-4293830Y-216680D01*
Y-213340D01*
X-4291160Y-211680D01*
X-4288490Y-213340D01*
Y-216680D01*
X-4291160Y-218350D01*
G01X-4090010Y-206680D02*
X-4084680Y-201680D01*
X-4080680Y-193350D01*
X-4078010Y-181680D01*
X-4080680Y-171680D01*
X-4086010Y-165010D01*
X-4095350Y-160010D01*
X-4131350D01*
Y-260010D01*
X-4087350D01*
X-4078010Y-253340D01*
X-4072680Y-243340D01*
X-4070010Y-231680D01*
X-4072680Y-220010D01*
X-4080680Y-210010D01*
X-4090010Y-206680D01*
X-4131350D01*
G01X-4005440Y-260010D02*
X-4016110Y-258340D01*
X-4025440Y-251680D01*
X-4033440Y-241680D01*
X-4038770Y-230010D01*
X-4041440Y-216680D01*
Y-203340D01*
X-4038770Y-190010D01*
X-4033440Y-178340D01*
X-4025440Y-168340D01*
X-4016110Y-161680D01*
X-4005440Y-160010D01*
X-3994770Y-161680D01*
X-3985440Y-168340D01*
X-3977440Y-178340D01*
X-3972110Y-190010D01*
X-3969440Y-203340D01*
Y-216680D01*
X-3972110Y-230010D01*
X-3977440Y-241680D01*
X-3985440Y-251680D01*
X-3994770Y-258340D01*
X-4005440Y-260010D01*
G01X-3910200Y-160010D02*
Y-260010D01*
G01X-3940870Y-160010D02*
X-3879530D01*
G01X-3814960D02*
Y-260010D01*
G01X-3845630Y-160010D02*
X-3784290D01*
G01X-3719720Y-260010D02*
X-3730390Y-258340D01*
X-3739720Y-251680D01*
X-3747720Y-241680D01*
X-3753050Y-230010D01*
X-3755720Y-216680D01*
Y-203340D01*
X-3753050Y-190010D01*
X-3747720Y-178340D01*
X-3739720Y-168340D01*
X-3730390Y-161680D01*
X-3719720Y-160010D01*
X-3709050Y-161680D01*
X-3699720Y-168340D01*
X-3691720Y-178340D01*
X-3686390Y-190010D01*
X-3683720Y-203340D01*
Y-216680D01*
X-3686390Y-230010D01*
X-3691720Y-241680D01*
X-3699720Y-251680D01*
X-3709050Y-258340D01*
X-3719720Y-260010D01*
G01X-3659150D02*
Y-160010D01*
X-3624480Y-243340D01*
X-3589810Y-160010D01*
Y-260010D01*
G01X-3404670Y-168340D02*
X-3412670Y-163340D01*
X-3422000Y-160010D01*
X-3432670D01*
X-3444670Y-165010D01*
X-3454000Y-173340D01*
X-3460670Y-183340D01*
X-3466000Y-200010D01*
X-3467330Y-215010D01*
X-3464670Y-230010D01*
X-3460670Y-240010D01*
X-3452670Y-250010D01*
X-3443330Y-256680D01*
X-3434000Y-260010D01*
X-3424670D01*
X-3415330Y-256680D01*
X-3407330Y-251680D01*
X-3400670Y-245010D01*
G01X-3338760Y-260010D02*
X-3349430Y-258340D01*
X-3358760Y-251680D01*
X-3366760Y-241680D01*
X-3372090Y-230010D01*
X-3374760Y-216680D01*
Y-203340D01*
X-3372090Y-190010D01*
X-3366760Y-178340D01*
X-3358760Y-168340D01*
X-3349430Y-161680D01*
X-3338760Y-160010D01*
X-3328090Y-161680D01*
X-3318760Y-168340D01*
X-3310760Y-178340D01*
X-3305430Y-190010D01*
X-3302760Y-203340D01*
Y-216680D01*
X-3305430Y-230010D01*
X-3310760Y-241680D01*
X-3318760Y-251680D01*
X-3328090Y-258340D01*
X-3338760Y-260010D01*
G01X-3274190D02*
Y-160010D01*
X-3212850Y-260010D01*
Y-160010D01*
G01X-3177610Y-260010D02*
Y-160010D01*
X-3150950D01*
X-3140280Y-165010D01*
X-3132280Y-171680D01*
X-3125610Y-181680D01*
X-3120280Y-193350D01*
X-3118950Y-210010D01*
X-3120280Y-226680D01*
X-3125610Y-238340D01*
X-3132280Y-248350D01*
X-3140280Y-255010D01*
X-3150950Y-260010D01*
X-3177610D01*
G01X-3082370Y-160010D02*
Y-231680D01*
X-3077040Y-246680D01*
X-3066370Y-256680D01*
X-3053040Y-260010D01*
X-3039710Y-256680D01*
X-3029040Y-246680D01*
X-3023710Y-231680D01*
Y-160010D01*
G01X-2928470Y-168340D02*
X-2936470Y-163340D01*
X-2945800Y-160010D01*
X-2956470D01*
X-2968470Y-165010D01*
X-2977800Y-173340D01*
X-2984470Y-183340D01*
X-2989800Y-200010D01*
X-2991130Y-215010D01*
X-2988470Y-230010D01*
X-2984470Y-240010D01*
X-2976470Y-250010D01*
X-2967130Y-256680D01*
X-2957800Y-260010D01*
X-2948470D01*
X-2939130Y-256680D01*
X-2931130Y-251680D01*
X-2924470Y-245010D01*
G01X-2862560Y-160010D02*
Y-260010D01*
G01X-2893230Y-160010D02*
X-2831890D01*
G01X-2767320Y-260010D02*
X-2777990Y-258340D01*
X-2787320Y-251680D01*
X-2795320Y-241680D01*
X-2800650Y-230010D01*
X-2803320Y-216680D01*
Y-203340D01*
X-2800650Y-190010D01*
X-2795320Y-178340D01*
X-2787320Y-168340D01*
X-2777990Y-161680D01*
X-2767320Y-160010D01*
X-2756650Y-161680D01*
X-2747320Y-168340D01*
X-2739320Y-178340D01*
X-2733990Y-190010D01*
X-2731320Y-203340D01*
Y-216680D01*
X-2733990Y-230010D01*
X-2739320Y-241680D01*
X-2747320Y-251680D01*
X-2756650Y-258340D01*
X-2767320Y-260010D01*
G01X-2698750D02*
Y-160010D01*
X-2665410D01*
X-2654750Y-165010D01*
X-2648080Y-171680D01*
X-2645410Y-185010D01*
X-2648080Y-198340D01*
X-2656080Y-206680D01*
X-2665410Y-211680D01*
X-2698750D01*
G01X-2665410D02*
X-2645410Y-260010D01*
G01X-2498930Y-226680D02*
X-2464270D01*
G01X-2261790Y-168340D02*
X-2269790Y-163340D01*
X-2279120Y-160010D01*
X-2289790D01*
X-2301790Y-165010D01*
X-2311120Y-173340D01*
X-2317790Y-183340D01*
X-2323120Y-200010D01*
X-2324450Y-215010D01*
X-2321790Y-230010D01*
X-2317790Y-240010D01*
X-2309790Y-250010D01*
X-2300450Y-256680D01*
X-2291120Y-260010D01*
X-2281790D01*
X-2272450Y-256680D01*
X-2264450Y-251680D01*
X-2257790Y-245010D01*
G01X-2195880Y-260010D02*
X-2206550Y-258340D01*
X-2215880Y-251680D01*
X-2223880Y-241680D01*
X-2229210Y-230010D01*
X-2231880Y-216680D01*
Y-203340D01*
X-2229210Y-190010D01*
X-2223880Y-178340D01*
X-2215880Y-168340D01*
X-2206550Y-161680D01*
X-2195880Y-160010D01*
X-2185210Y-161680D01*
X-2175880Y-168340D01*
X-2167880Y-178340D01*
X-2162550Y-190010D01*
X-2159880Y-203340D01*
Y-216680D01*
X-2162550Y-230010D01*
X-2167880Y-241680D01*
X-2175880Y-251680D01*
X-2185210Y-258340D01*
X-2195880Y-260010D01*
G01X-2127310D02*
Y-160010D01*
X-2095310D01*
X-2084640Y-165010D01*
X-2076640Y-176680D01*
X-2073970Y-190010D01*
X-2076640Y-203340D01*
X-2083310Y-213340D01*
X-2095310Y-218350D01*
X-2127310D01*
G01X-2032070Y-260010D02*
Y-160010D01*
X-2000070D01*
X-1989400Y-165010D01*
X-1981400Y-176680D01*
X-1978730Y-190010D01*
X-1981400Y-203340D01*
X-1988070Y-213340D01*
X-2000070Y-218350D01*
X-2032070D01*
G01X-1883490Y-260010D02*
X-1936830D01*
Y-160010D01*
X-1883490D01*
G01X-1904830Y-208340D02*
X-1936830D01*
G01X-1841590Y-260010D02*
Y-160010D01*
X-1808250D01*
X-1797590Y-165010D01*
X-1790920Y-171680D01*
X-1788250Y-185010D01*
X-1790920Y-198340D01*
X-1798920Y-206680D01*
X-1808250Y-211680D01*
X-1841590D01*
G01X-1808250D02*
X-1788250Y-260010D01*
G01X-1624440Y-160010D02*
X-1635110Y-163340D01*
X-1643110Y-171680D01*
X-1648440Y-181680D01*
X-1652440Y-195010D01*
X-1653770Y-210010D01*
X-1652440Y-225010D01*
X-1648440Y-238340D01*
X-1643110Y-248350D01*
X-1635110Y-256680D01*
X-1624440Y-260010D01*
X-1613770Y-256680D01*
X-1605770Y-248350D01*
X-1600440Y-238340D01*
X-1596440Y-225010D01*
X-1595110Y-210010D01*
X-1596440Y-195010D01*
X-1600440Y-181680D01*
X-1605770Y-171680D01*
X-1613770Y-163340D01*
X-1624440Y-160010D01*
G01X-1529200Y-263340D02*
X-1531870Y-261680D01*
Y-258340D01*
X-1529200Y-256680D01*
X-1526530Y-258340D01*
Y-261680D01*
X-1529200Y-263340D01*
G01X-1433960Y-160010D02*
X-1444630Y-163340D01*
X-1452630Y-171680D01*
X-1457960Y-181680D01*
X-1461960Y-195010D01*
X-1463290Y-210010D01*
X-1461960Y-225010D01*
X-1457960Y-238340D01*
X-1452630Y-248350D01*
X-1444630Y-256680D01*
X-1433960Y-260010D01*
X-1423290Y-256680D01*
X-1415290Y-248350D01*
X-1409960Y-238340D01*
X-1405960Y-225010D01*
X-1404630Y-210010D01*
X-1405960Y-195010D01*
X-1409960Y-181680D01*
X-1415290Y-171680D01*
X-1423290Y-163340D01*
X-1433960Y-160010D01*
G01X-1338720Y-260010D02*
Y-160010D01*
X-1354720Y-180010D01*
G01Y-260010D02*
X-1322720D01*
G01X-1243480D02*
X-1234150Y-258340D01*
X-1223480Y-253340D01*
X-1216810Y-245010D01*
X-1214150Y-233340D01*
X-1216810Y-221680D01*
X-1224810Y-211680D01*
X-1236810Y-206680D01*
X-1250150D01*
X-1258150Y-203340D01*
X-1264810Y-195010D01*
X-1267480Y-183340D01*
X-1263480Y-171680D01*
X-1254150Y-163340D01*
X-1243480Y-160010D01*
X-1232810Y-163340D01*
X-1223480Y-171680D01*
X-1219480Y-183340D01*
X-1222150Y-195010D01*
X-1228810Y-203340D01*
X-1236810Y-206680D01*
X-1250150D01*
X-1262150Y-211680D01*
X-1270150Y-221680D01*
X-1272810Y-233340D01*
X-1270150Y-245010D01*
X-1263480Y-253340D01*
X-1252810Y-258340D01*
X-1243480Y-260010D01*
G01X-1087670D02*
Y-160010D01*
X-1053000Y-243340D01*
X-1018330Y-160010D01*
Y-260010D01*
G01X-992430D02*
Y-160010D01*
X-957760Y-243340D01*
X-923090Y-160010D01*
Y-260010D01*
G01X-4320490Y-396670D02*
X-4261830Y-323340D01*
G01X-4291160Y-310010D02*
Y-410010D01*
G01X-4261830Y-396670D02*
X-4320490Y-323340D01*
G01X-4331160Y-360010D02*
X-4251160D01*
G01X-4033440Y-380010D02*
X-4022770Y-388340D01*
X-4010770Y-393340D01*
X-4000110D01*
X-3989440Y-388340D01*
X-3981440Y-380010D01*
X-3977440Y-368340D01*
X-3980110Y-356680D01*
X-3986770Y-346670D01*
X-3998770Y-340010D01*
X-4014770Y-336670D01*
X-4024110Y-330010D01*
X-4028110Y-318340D01*
X-4025440Y-306670D01*
X-4018770Y-298340D01*
X-4009440Y-293340D01*
X-4000110D01*
X-3990770Y-296670D01*
X-3982770Y-305010D01*
G01X-3939530Y-293340D02*
Y-365010D01*
X-3934200Y-380010D01*
X-3923530Y-390010D01*
X-3910200Y-393340D01*
X-3896870Y-390010D01*
X-3886200Y-380010D01*
X-3880870Y-365010D01*
Y-293340D01*
G01X-3841630Y-393340D02*
Y-293340D01*
X-3808290D01*
X-3797630Y-298340D01*
X-3790960Y-305010D01*
X-3788290Y-318340D01*
X-3790960Y-331670D01*
X-3798960Y-340010D01*
X-3808290Y-345010D01*
X-3841630D01*
G01X-3808290D02*
X-3788290Y-393340D01*
G01X-3745050D02*
Y-293340D01*
X-3694390D01*
G01X-3713050Y-341670D02*
X-3745050D01*
G01X-3657810Y-393340D02*
X-3624480Y-293340D01*
X-3591150Y-393340D01*
G01X-3603150Y-358340D02*
X-3645810D01*
G01X-3499910Y-301670D02*
X-3507910Y-296670D01*
X-3517240Y-293340D01*
X-3527910D01*
X-3539910Y-298340D01*
X-3549240Y-306670D01*
X-3555910Y-316670D01*
X-3561240Y-333340D01*
X-3562570Y-348340D01*
X-3559910Y-363340D01*
X-3555910Y-373340D01*
X-3547910Y-383340D01*
X-3538570Y-390010D01*
X-3529240Y-393340D01*
X-3519910D01*
X-3510570Y-390010D01*
X-3502570Y-385010D01*
X-3495910Y-378340D01*
G01X-3407330Y-393340D02*
X-3460670D01*
Y-293340D01*
X-3407330D01*
G01X-3428670Y-341670D02*
X-3460670D01*
G01X-3260850Y-360010D02*
X-3226190D01*
G01X-3086370Y-393340D02*
X-3053040Y-293340D01*
X-3019710Y-393340D01*
G01X-3031710Y-358340D02*
X-3074370D01*
G01X-2973800Y-293340D02*
X-2941800D01*
G01X-2957800D02*
Y-393340D01*
G01X-2973800D02*
X-2941800D01*
G01X-2889230D02*
Y-293340D01*
X-2855890D01*
X-2845230Y-298340D01*
X-2838560Y-305010D01*
X-2835890Y-318340D01*
X-2838560Y-331670D01*
X-2846560Y-340010D01*
X-2855890Y-345010D01*
X-2889230D01*
G01X-2855890D02*
X-2835890Y-393340D01*
G01X-2672080Y-293340D02*
X-2682750Y-296670D01*
X-2690750Y-305010D01*
X-2696080Y-315010D01*
X-2700080Y-328340D01*
X-2701410Y-343340D01*
X-2700080Y-358340D01*
X-2696080Y-371670D01*
X-2690750Y-381680D01*
X-2682750Y-390010D01*
X-2672080Y-393340D01*
X-2661410Y-390010D01*
X-2653410Y-381680D01*
X-2648080Y-371670D01*
X-2644080Y-358340D01*
X-2642750Y-343340D01*
X-2644080Y-328340D01*
X-2648080Y-315010D01*
X-2653410Y-305010D01*
X-2661410Y-296670D01*
X-2672080Y-293340D01*
G01X-2516270Y-393340D02*
Y-293340D01*
X-2481600Y-376670D01*
X-2446930Y-293340D01*
Y-393340D01*
G01X-2421030D02*
Y-293340D01*
X-2386360Y-376670D01*
X-2351690Y-293340D01*
Y-393340D01*
G01X-4320490Y2344990D02*
X-4261830Y2418320D01*
G01X-4291160Y2431650D02*
Y2331650D01*
G01X-4261830Y2344990D02*
X-4320490Y2418320D01*
G01X-4331160Y2381650D02*
X-4251160D01*
G01X-4034770Y2348320D02*
Y2448320D01*
X-4008110D01*
X-3997440Y2443320D01*
X-3989440Y2436650D01*
X-3982770Y2426650D01*
X-3977440Y2414980D01*
X-3976110Y2398320D01*
X-3977440Y2381650D01*
X-3982770Y2369990D01*
X-3989440Y2359980D01*
X-3997440Y2353320D01*
X-4008110Y2348320D01*
X-4034770D01*
G01X-3926200Y2448320D02*
X-3894200D01*
G01X-3910200D02*
Y2348320D01*
G01X-3926200D02*
X-3894200D01*
G01X-3788290D02*
X-3841630D01*
Y2448320D01*
X-3788290D01*
G01X-3809630Y2399990D02*
X-3841630D01*
G01X-3746390Y2448320D02*
Y2348320D01*
X-3693050D01*
G01X-3597810D02*
X-3651150D01*
Y2448320D01*
X-3597810D01*
G01X-3619150Y2399990D02*
X-3651150D01*
G01X-3499910Y2439990D02*
X-3507910Y2444990D01*
X-3517240Y2448320D01*
X-3527910D01*
X-3539910Y2443320D01*
X-3549240Y2434990D01*
X-3555910Y2424990D01*
X-3561240Y2408320D01*
X-3562570Y2393320D01*
X-3559910Y2378320D01*
X-3555910Y2368320D01*
X-3547910Y2358320D01*
X-3538570Y2351650D01*
X-3529240Y2348320D01*
X-3519910D01*
X-3510570Y2351650D01*
X-3502570Y2356650D01*
X-3495910Y2363320D01*
G01X-3434000Y2448320D02*
Y2348320D01*
G01X-3464670Y2448320D02*
X-3403330D01*
G01X-3365430Y2348320D02*
Y2448320D01*
X-3332090D01*
X-3321430Y2443320D01*
X-3314760Y2436650D01*
X-3312090Y2423320D01*
X-3314760Y2409990D01*
X-3322760Y2401650D01*
X-3332090Y2396650D01*
X-3365430D01*
G01X-3332090D02*
X-3312090Y2348320D01*
G01X-3259520Y2448320D02*
X-3227520D01*
G01X-3243520D02*
Y2348320D01*
G01X-3259520D02*
X-3227520D01*
G01X-3118950Y2439990D02*
X-3126950Y2444990D01*
X-3136280Y2448320D01*
X-3146950D01*
X-3158950Y2443320D01*
X-3168280Y2434990D01*
X-3174950Y2424990D01*
X-3180280Y2408320D01*
X-3181610Y2393320D01*
X-3178950Y2378320D01*
X-3174950Y2368320D01*
X-3166950Y2358320D01*
X-3157610Y2351650D01*
X-3148280Y2348320D01*
X-3138950D01*
X-3129610Y2351650D01*
X-3121610Y2356650D01*
X-3114950Y2363320D01*
G01X-2975130Y2381650D02*
X-2940470D01*
G01X-2792650Y2348320D02*
Y2448320D01*
X-2741990D01*
G01X-2760650Y2399990D02*
X-2792650D01*
G01X-2698750Y2348320D02*
Y2448320D01*
X-2665410D01*
X-2654750Y2443320D01*
X-2648080Y2436650D01*
X-2645410Y2423320D01*
X-2648080Y2409990D01*
X-2656080Y2401650D01*
X-2665410Y2396650D01*
X-2698750D01*
G01X-2665410D02*
X-2645410Y2348320D01*
G01X-2594170Y2381650D02*
X-2559510D01*
G01X-2465600Y2348320D02*
Y2448320D01*
X-2514930Y2376650D01*
X-2448270D01*
G01X-2291120Y2348320D02*
Y2448320D01*
X-2307120Y2428320D01*
G01Y2348320D02*
X-2275120D01*
G01X-2195880Y2344990D02*
X-2198550Y2346650D01*
Y2349990D01*
X-2195880Y2351650D01*
X-2193210Y2349990D01*
Y2346650D01*
X-2195880Y2344990D01*
G01X-2129970Y2363320D02*
X-2121970Y2354990D01*
X-2112640Y2349990D01*
X-2100640Y2348320D01*
X-2088640Y2351650D01*
X-2079310Y2358320D01*
X-2072640Y2369990D01*
X-2071310Y2383320D01*
X-2073970Y2396650D01*
X-2080640Y2404990D01*
X-2089970Y2411650D01*
X-2099310Y2413320D01*
X-2108640Y2411650D01*
X-2120640Y2404990D01*
X-2116640Y2448320D01*
X-2080640D01*
G01X-1944830Y2348320D02*
Y2448320D01*
X-1910160Y2364990D01*
X-1875490Y2448320D01*
Y2348320D01*
G01X-1849590D02*
Y2448320D01*
X-1814920Y2364990D01*
X-1780250Y2448320D01*
Y2348320D01*
G01X-4508310Y4849390D02*
Y4749390D01*
X-4454970D01*
G01X-4386400D02*
Y4849390D01*
X-4402400Y4829390D01*
G01Y4749390D02*
X-4370400D01*
G01X-4291160Y4746060D02*
X-4293830Y4747720D01*
Y4751060D01*
X-4291160Y4752720D01*
X-4288490Y4751060D01*
Y4747720D01*
X-4291160Y4746060D01*
G01Y4791050D02*
X-4293830Y4792720D01*
Y4796060D01*
X-4291160Y4797720D01*
X-4288490Y4796060D01*
Y4792720D01*
X-4291160Y4791050D01*
G01X-4100680Y4849390D02*
Y4749390D01*
G01X-4131350Y4849390D02*
X-4070010D01*
G01X-4005440Y4749390D02*
X-4016110Y4751060D01*
X-4025440Y4757720D01*
X-4033440Y4767720D01*
X-4038770Y4779390D01*
X-4041440Y4792720D01*
Y4806060D01*
X-4038770Y4819390D01*
X-4033440Y4831060D01*
X-4025440Y4841060D01*
X-4016110Y4847720D01*
X-4005440Y4849390D01*
X-3994770Y4847720D01*
X-3985440Y4841060D01*
X-3977440Y4831060D01*
X-3972110Y4819390D01*
X-3969440Y4806060D01*
Y4792720D01*
X-3972110Y4779390D01*
X-3977440Y4767720D01*
X-3985440Y4757720D01*
X-3994770Y4751060D01*
X-4005440Y4749390D01*
G01X-3936870D02*
Y4849390D01*
X-3904870D01*
X-3894200Y4844390D01*
X-3886200Y4832720D01*
X-3883530Y4819390D01*
X-3886200Y4806060D01*
X-3892870Y4796060D01*
X-3904870Y4791050D01*
X-3936870D01*
G01X-3690390Y4841060D02*
X-3698390Y4846060D01*
X-3707720Y4849390D01*
X-3718390D01*
X-3730390Y4844390D01*
X-3739720Y4836060D01*
X-3746390Y4826060D01*
X-3751720Y4809390D01*
X-3753050Y4794390D01*
X-3750390Y4779390D01*
X-3746390Y4769390D01*
X-3738390Y4759390D01*
X-3729050Y4752720D01*
X-3719720Y4749390D01*
X-3710390D01*
X-3701050Y4752720D01*
X-3693050Y4757720D01*
X-3686390Y4764390D01*
G01X-3624480Y4749390D02*
X-3635150Y4751060D01*
X-3644480Y4757720D01*
X-3652480Y4767720D01*
X-3657810Y4779390D01*
X-3660480Y4792720D01*
Y4806060D01*
X-3657810Y4819390D01*
X-3652480Y4831060D01*
X-3644480Y4841060D01*
X-3635150Y4847720D01*
X-3624480Y4849390D01*
X-3613810Y4847720D01*
X-3604480Y4841060D01*
X-3596480Y4831060D01*
X-3591150Y4819390D01*
X-3588480Y4806060D01*
Y4792720D01*
X-3591150Y4779390D01*
X-3596480Y4767720D01*
X-3604480Y4757720D01*
X-3613810Y4751060D01*
X-3624480Y4749390D01*
G01X-3559910D02*
Y4849390D01*
X-3498570Y4749390D01*
Y4849390D01*
G01X-3463330Y4749390D02*
Y4849390D01*
X-3436670D01*
X-3426000Y4844390D01*
X-3418000Y4837720D01*
X-3411330Y4827720D01*
X-3406000Y4816050D01*
X-3404670Y4799390D01*
X-3406000Y4782720D01*
X-3411330Y4771060D01*
X-3418000Y4761050D01*
X-3426000Y4754390D01*
X-3436670Y4749390D01*
X-3463330D01*
G01X-3368090Y4849390D02*
Y4777720D01*
X-3362760Y4762720D01*
X-3352090Y4752720D01*
X-3338760Y4749390D01*
X-3325430Y4752720D01*
X-3314760Y4762720D01*
X-3309430Y4777720D01*
Y4849390D01*
G01X-3214190Y4841060D02*
X-3222190Y4846060D01*
X-3231520Y4849390D01*
X-3242190D01*
X-3254190Y4844390D01*
X-3263520Y4836060D01*
X-3270190Y4826060D01*
X-3275520Y4809390D01*
X-3276850Y4794390D01*
X-3274190Y4779390D01*
X-3270190Y4769390D01*
X-3262190Y4759390D01*
X-3252850Y4752720D01*
X-3243520Y4749390D01*
X-3234190D01*
X-3224850Y4752720D01*
X-3216850Y4757720D01*
X-3210190Y4764390D01*
G01X-3148280Y4849390D02*
Y4749390D01*
G01X-3178950Y4849390D02*
X-3117610D01*
G01X-3053040Y4749390D02*
X-3063710Y4751060D01*
X-3073040Y4757720D01*
X-3081040Y4767720D01*
X-3086370Y4779390D01*
X-3089040Y4792720D01*
Y4806060D01*
X-3086370Y4819390D01*
X-3081040Y4831060D01*
X-3073040Y4841060D01*
X-3063710Y4847720D01*
X-3053040Y4849390D01*
X-3042370Y4847720D01*
X-3033040Y4841060D01*
X-3025040Y4831060D01*
X-3019710Y4819390D01*
X-3017040Y4806060D01*
Y4792720D01*
X-3019710Y4779390D01*
X-3025040Y4767720D01*
X-3033040Y4757720D01*
X-3042370Y4751060D01*
X-3053040Y4749390D01*
G01X-2984470D02*
Y4849390D01*
X-2951130D01*
X-2940470Y4844390D01*
X-2933800Y4837720D01*
X-2931130Y4824390D01*
X-2933800Y4811060D01*
X-2941800Y4802720D01*
X-2951130Y4797720D01*
X-2984470D01*
G01X-2951130D02*
X-2931130Y4749390D01*
G01X-2784650Y4782720D02*
X-2749990D01*
G01X-2547510Y4841060D02*
X-2555510Y4846060D01*
X-2564840Y4849390D01*
X-2575510D01*
X-2587510Y4844390D01*
X-2596840Y4836060D01*
X-2603510Y4826060D01*
X-2608840Y4809390D01*
X-2610170Y4794390D01*
X-2607510Y4779390D01*
X-2603510Y4769390D01*
X-2595510Y4759390D01*
X-2586170Y4752720D01*
X-2576840Y4749390D01*
X-2567510D01*
X-2558170Y4752720D01*
X-2550170Y4757720D01*
X-2543510Y4764390D01*
G01X-2481600Y4749390D02*
X-2492270Y4751060D01*
X-2501600Y4757720D01*
X-2509600Y4767720D01*
X-2514930Y4779390D01*
X-2517600Y4792720D01*
Y4806060D01*
X-2514930Y4819390D01*
X-2509600Y4831060D01*
X-2501600Y4841060D01*
X-2492270Y4847720D01*
X-2481600Y4849390D01*
X-2470930Y4847720D01*
X-2461600Y4841060D01*
X-2453600Y4831060D01*
X-2448270Y4819390D01*
X-2445600Y4806060D01*
Y4792720D01*
X-2448270Y4779390D01*
X-2453600Y4767720D01*
X-2461600Y4757720D01*
X-2470930Y4751060D01*
X-2481600Y4749390D01*
G01X-2413030D02*
Y4849390D01*
X-2381030D01*
X-2370360Y4844390D01*
X-2362360Y4832720D01*
X-2359690Y4819390D01*
X-2362360Y4806060D01*
X-2369030Y4796060D01*
X-2381030Y4791050D01*
X-2413030D01*
G01X-2317790Y4749390D02*
Y4849390D01*
X-2285790D01*
X-2275120Y4844390D01*
X-2267120Y4832720D01*
X-2264450Y4819390D01*
X-2267120Y4806060D01*
X-2273790Y4796060D01*
X-2285790Y4791050D01*
X-2317790D01*
G01X-2169210Y4749390D02*
X-2222550D01*
Y4849390D01*
X-2169210D01*
G01X-2190550Y4801060D02*
X-2222550D01*
G01X-2127310Y4749390D02*
Y4849390D01*
X-2093970D01*
X-2083310Y4844390D01*
X-2076640Y4837720D01*
X-2073970Y4824390D01*
X-2076640Y4811060D01*
X-2084640Y4802720D01*
X-2093970Y4797720D01*
X-2127310D01*
G01X-2093970D02*
X-2073970Y4749390D01*
G01X-1910160Y4849390D02*
X-1920830Y4846060D01*
X-1928830Y4837720D01*
X-1934160Y4827720D01*
X-1938160Y4814390D01*
X-1939490Y4799390D01*
X-1938160Y4784390D01*
X-1934160Y4771060D01*
X-1928830Y4761050D01*
X-1920830Y4752720D01*
X-1910160Y4749390D01*
X-1899490Y4752720D01*
X-1891490Y4761050D01*
X-1886160Y4771060D01*
X-1882160Y4784390D01*
X-1880830Y4799390D01*
X-1882160Y4814390D01*
X-1886160Y4827720D01*
X-1891490Y4837720D01*
X-1899490Y4846060D01*
X-1910160Y4849390D01*
G01X-1814920Y4746060D02*
X-1817590Y4747720D01*
Y4751060D01*
X-1814920Y4752720D01*
X-1812250Y4751060D01*
Y4747720D01*
X-1814920Y4746060D01*
G01X-1719680Y4849390D02*
X-1730350Y4846060D01*
X-1738350Y4837720D01*
X-1743680Y4827720D01*
X-1747680Y4814390D01*
X-1749010Y4799390D01*
X-1747680Y4784390D01*
X-1743680Y4771060D01*
X-1738350Y4761050D01*
X-1730350Y4752720D01*
X-1719680Y4749390D01*
X-1709010Y4752720D01*
X-1701010Y4761050D01*
X-1695680Y4771060D01*
X-1691680Y4784390D01*
X-1690350Y4799390D01*
X-1691680Y4814390D01*
X-1695680Y4827720D01*
X-1701010Y4837720D01*
X-1709010Y4846060D01*
X-1719680Y4849390D01*
G01X-1624440Y4749390D02*
Y4849390D01*
X-1640440Y4829390D01*
G01Y4749390D02*
X-1608440D01*
G01X-1529200D02*
X-1519870Y4751060D01*
X-1509200Y4756060D01*
X-1502530Y4764390D01*
X-1499870Y4776060D01*
X-1502530Y4787720D01*
X-1510530Y4797720D01*
X-1522530Y4802720D01*
X-1535870D01*
X-1543870Y4806060D01*
X-1550530Y4814390D01*
X-1553200Y4826060D01*
X-1549200Y4837720D01*
X-1539870Y4846060D01*
X-1529200Y4849390D01*
X-1518530Y4846060D01*
X-1509200Y4837720D01*
X-1505200Y4826060D01*
X-1507870Y4814390D01*
X-1514530Y4806060D01*
X-1522530Y4802720D01*
X-1535870D01*
X-1547870Y4797720D01*
X-1555870Y4787720D01*
X-1558530Y4776060D01*
X-1555870Y4764390D01*
X-1549200Y4756060D01*
X-1538530Y4751060D01*
X-1529200Y4749390D01*
G01X-1373390D02*
Y4849390D01*
X-1338720Y4766060D01*
X-1304050Y4849390D01*
Y4749390D01*
G01X-1278150D02*
Y4849390D01*
X-1243480Y4766060D01*
X-1208810Y4849390D01*
Y4749390D01*
G01X-4320490Y4912720D02*
X-4261830Y4986050D01*
G01X-4291160Y4999380D02*
Y4899380D01*
G01X-4261830Y4912720D02*
X-4320490Y4986050D01*
G01X-4331160Y4949380D02*
X-4251160D01*
G01X-4033440Y4929380D02*
X-4022770Y4921050D01*
X-4010770Y4916050D01*
X-4000110D01*
X-3989440Y4921050D01*
X-3981440Y4929380D01*
X-3977440Y4941050D01*
X-3980110Y4952710D01*
X-3986770Y4962720D01*
X-3998770Y4969380D01*
X-4014770Y4972720D01*
X-4024110Y4979380D01*
X-4028110Y4991050D01*
X-4025440Y5002720D01*
X-4018770Y5011050D01*
X-4009440Y5016050D01*
X-4000110D01*
X-3990770Y5012720D01*
X-3982770Y5004380D01*
G01X-3939530Y5016050D02*
Y4944380D01*
X-3934200Y4929380D01*
X-3923530Y4919380D01*
X-3910200Y4916050D01*
X-3896870Y4919380D01*
X-3886200Y4929380D01*
X-3880870Y4944380D01*
Y5016050D01*
G01X-3841630Y4916050D02*
Y5016050D01*
X-3808290D01*
X-3797630Y5011050D01*
X-3790960Y5004380D01*
X-3788290Y4991050D01*
X-3790960Y4977720D01*
X-3798960Y4969380D01*
X-3808290Y4964380D01*
X-3841630D01*
G01X-3808290D02*
X-3788290Y4916050D01*
G01X-3745050D02*
Y5016050D01*
X-3694390D01*
G01X-3713050Y4967720D02*
X-3745050D01*
G01X-3657810Y4916050D02*
X-3624480Y5016050D01*
X-3591150Y4916050D01*
G01X-3603150Y4951050D02*
X-3645810D01*
G01X-3499910Y5007720D02*
X-3507910Y5012720D01*
X-3517240Y5016050D01*
X-3527910D01*
X-3539910Y5011050D01*
X-3549240Y5002720D01*
X-3555910Y4992720D01*
X-3561240Y4976050D01*
X-3562570Y4961050D01*
X-3559910Y4946050D01*
X-3555910Y4936050D01*
X-3547910Y4926050D01*
X-3538570Y4919380D01*
X-3529240Y4916050D01*
X-3519910D01*
X-3510570Y4919380D01*
X-3502570Y4924380D01*
X-3495910Y4931050D01*
G01X-3407330Y4916050D02*
X-3460670D01*
Y5016050D01*
X-3407330D01*
G01X-3428670Y4967720D02*
X-3460670D01*
G01X-3260850Y4949380D02*
X-3226190D01*
G01X-3086370Y4916050D02*
X-3053040Y5016050D01*
X-3019710Y4916050D01*
G01X-3031710Y4951050D02*
X-3074370D01*
G01X-2973800Y5016050D02*
X-2941800D01*
G01X-2957800D02*
Y4916050D01*
G01X-2973800D02*
X-2941800D01*
G01X-2889230D02*
Y5016050D01*
X-2855890D01*
X-2845230Y5011050D01*
X-2838560Y5004380D01*
X-2835890Y4991050D01*
X-2838560Y4977720D01*
X-2846560Y4969380D01*
X-2855890Y4964380D01*
X-2889230D01*
G01X-2855890D02*
X-2835890Y4916050D01*
G01X-2672080Y5016050D02*
X-2682750Y5012720D01*
X-2690750Y5004380D01*
X-2696080Y4994380D01*
X-2700080Y4981050D01*
X-2701410Y4966050D01*
X-2700080Y4951050D01*
X-2696080Y4937720D01*
X-2690750Y4927710D01*
X-2682750Y4919380D01*
X-2672080Y4916050D01*
X-2661410Y4919380D01*
X-2653410Y4927710D01*
X-2648080Y4937720D01*
X-2644080Y4951050D01*
X-2642750Y4966050D01*
X-2644080Y4981050D01*
X-2648080Y4994380D01*
X-2653410Y5004380D01*
X-2661410Y5012720D01*
X-2672080Y5016050D01*
G01X-2516270Y4916050D02*
Y5016050D01*
X-2481600Y4932720D01*
X-2446930Y5016050D01*
Y4916050D01*
G01X-2421030D02*
Y5016050D01*
X-2386360Y4932720D01*
X-2351690Y5016050D01*
Y4916050D01*
G01X4324000Y903000D02*
X16607440D01*
G01X4324000Y1538000D02*
X16607440D01*
G01X4324000Y2173000D02*
X16607440D01*
G01X6607460Y1538000D02*
Y268000D01*
G01X11410600Y1538000D02*
Y268000D01*
G01X14638940Y1538000D02*
Y268000D01*
M02*
