G04 ================== begin FILE IDENTIFICATION RECORD ==================*
G04 Layout Name:  C:/IMPORTANT/432C_ANDRONE_Ionut_P1/allegro/ANDRONE_Ionut_PCB.brd*
G04 Film Name:    SPTOP*
G04 File Format:  Gerber RS274X*
G04 File Origin:  Cadence Allegro 16.6-2015-S059*
G04 Origin Date:  Fri Dec 17 22:48:47 2021*
G04 *
G04 Layer:  VIA CLASS/PASTEMASK_TOP*
G04 Layer:  PIN/PASTEMASK_TOP*
G04 Layer:  PACKAGE GEOMETRY/PASTEMASK_TOP*
G04 Layer:  DRC ERROR CLASS/PASTEMASK_TOP*
G04 *
G04 Offset:    (0.0000 0.0000)*
G04 Mirror:    No*
G04 Mode:      Positive*
G04 Rotation:  0*
G04 FullContactRelief:  No*
G04 UndefLineWidth:     0.1000*
G04 ================== end FILE IDENTIFICATION RECORD ====================*
%FSLAX25Y25*MOMM*%
%IR0*IPPOS*OFA0.00000B0.00000*MIA0B0*SFA1.00000B1.00000*%
%ADD14R,.8X1.1*%
%ADD10R,1.1X.8*%
%ADD16C,1.*%
%ADD13R,1.27X1.27*%
%ADD15R,3.048X1.9304*%
%ADD12R,1.2192X1.9304*%
%ADD11R,1.9304X1.2192*%
%LPD*%
G75*
G54D10*
X535740Y579860D03*
X330000Y684000D03*
Y475720D03*
X1415740Y2285860D03*
X1210000Y2390000D03*
Y2181720D03*
G54D11*
X370000Y1007340D03*
Y1208000D03*
G54D12*
X838000Y876000D03*
X1038660D03*
G54D13*
X883000Y1409000D03*
X761000Y2180000D03*
Y1966640D03*
X798000Y2823000D03*
Y3036360D03*
X1059000Y317000D03*
X1272360D03*
X1316000Y1087000D03*
Y873640D03*
X1401000Y1771000D03*
X1187640D03*
X1096360Y1409000D03*
X1029000Y3703000D03*
Y3489640D03*
X1502000Y3703000D03*
Y3489640D03*
X2186000Y906000D03*
X2399360D03*
X1683000Y1580000D03*
X1896360D03*
X2400640Y1268000D03*
X2307000Y3134000D03*
Y2920640D03*
X2000000Y3708000D03*
Y3494640D03*
X3107000Y1399000D03*
X2893640D03*
X2609000Y1842000D03*
X2614000Y1268000D03*
X2609000Y2055360D03*
X2872000Y3458000D03*
X3085360D03*
G54D14*
X454140Y1865740D03*
X350000Y1660000D03*
X558280D03*
X1301860Y2939260D03*
X1406000Y3145000D03*
X1197720D03*
X2251140Y2547740D03*
X2147000Y2342000D03*
X2355280D03*
X1797140Y2202740D03*
X1693000Y1997000D03*
X1901280D03*
X1779860Y2662260D03*
X1884000Y2868000D03*
X1675720D03*
X2397000Y3507000D03*
X2876860Y634260D03*
X2981000Y840000D03*
X2772720D03*
X2977860Y2471260D03*
X3082000Y2677000D03*
X2873720D03*
X2501140Y3712740D03*
X2605280Y3507000D03*
G54D15*
X395000Y2511000D03*
Y3110440D03*
X3575000Y805000D03*
Y1404440D03*
X3570000Y2541000D03*
Y1941560D03*
X3580000Y3114000D03*
Y3713440D03*
G54D16*
X500000Y3500000D03*
X3500000Y500000D03*
M02*
