G04 ================== begin FILE IDENTIFICATION RECORD ==================*
G04 Layout Name:  C:/IMPORTANT/432C_ANDRONE_Ionut_P1/allegro/ANDRONE_Ionut_PCB.brd*
G04 Film Name:    SSTOP*
G04 File Format:  Gerber RS274X*
G04 File Origin:  Cadence Allegro 16.6-2015-S059*
G04 Origin Date:  Fri Dec 17 22:48:47 2021*
G04 *
G04 Layer:  USER PART NUMBER/SILKSCREEN_TOP*
G04 Layer:  TOLERANCE/SILKSCREEN_TOP*
G04 Layer:  REF DES/SILKSCREEN_TOP*
G04 Layer:  PACKAGE GEOMETRY/SILKSCREEN_TOP*
G04 Layer:  DEVICE TYPE/SILKSCREEN_TOP*
G04 Layer:  COMPONENT VALUE/SILKSCREEN_TOP*
G04 Layer:  BOARD GEOMETRY/SILKSCREEN_TOP*
G04 *
G04 Offset:    (0.0000 0.0000)*
G04 Mirror:    No*
G04 Mode:      Positive*
G04 Rotation:  0*
G04 FullContactRelief:  No*
G04 UndefLineWidth:     0.1000*
G04 ================== end FILE IDENTIFICATION RECORD ====================*
%FSLAX25Y25*MOMM*%
%IR0*IPPOS*OFA0.00000B0.00000*MIA0B0*SFA1.00000B1.00000*%
%ADD10C,.2*%
%ADD11C,.1524*%
%ADD12C,.1*%
G75*
%LPD*%
G75*
G54D10*
G01X234000Y186000D02*
X223330Y187670D01*
X214000Y194330D01*
X206000Y204330D01*
X200670Y216000D01*
X198000Y229330D01*
Y242670D01*
X200670Y256000D01*
X206000Y267670D01*
X214000Y277670D01*
X223330Y284330D01*
X234000Y286000D01*
X244670Y284330D01*
X254000Y277670D01*
X262000Y267670D01*
X267330Y256000D01*
X270000Y242670D01*
Y229330D01*
X267330Y216000D01*
X262000Y204330D01*
X254000Y194330D01*
X244670Y187670D01*
X234000Y186000D01*
G01X244670Y212670D02*
X260670Y186000D01*
G01X331330D02*
X334000Y207670D01*
X338000Y226000D01*
X343330Y242670D01*
X350000Y261000D01*
X360670Y286000D01*
X307330D01*
G01X793670Y709000D02*
Y637330D01*
X799000Y622330D01*
X809670Y612330D01*
X823000Y609000D01*
X836330Y612330D01*
X847000Y622330D01*
X852330Y637330D01*
Y709000D01*
G01X897670Y692330D02*
X905670Y702330D01*
X915000Y707330D01*
X925670Y709000D01*
X939000Y705670D01*
X948330Y697330D01*
X951000Y687330D01*
X949670Y677330D01*
X944330Y669000D01*
X917670Y652330D01*
X905670Y640670D01*
X897670Y624000D01*
X895000Y609000D01*
X951000D01*
G01X826330Y1157000D02*
Y1257000D01*
X859670D01*
X870330Y1252000D01*
X877000Y1245330D01*
X879670Y1232000D01*
X877000Y1218670D01*
X869000Y1210330D01*
X859670Y1205330D01*
X826330D01*
G01X859670D02*
X879670Y1157000D01*
G01X923670Y1172000D02*
X931670Y1163670D01*
X941000Y1158670D01*
X953000Y1157000D01*
X965000Y1160330D01*
X974330Y1167000D01*
X981000Y1178670D01*
X982330Y1192000D01*
X979670Y1205330D01*
X973000Y1213670D01*
X963670Y1220330D01*
X954330Y1222000D01*
X945000Y1220330D01*
X933000Y1213670D01*
X937000Y1257000D01*
X973000D01*
G01X697000Y1771000D02*
X698670Y1781670D01*
X705330Y1791000D01*
X715330Y1799000D01*
X727000Y1804330D01*
X740330Y1807000D01*
X753670D01*
X767000Y1804330D01*
X778670Y1799000D01*
X788670Y1791000D01*
X795330Y1781670D01*
X797000Y1771000D01*
X795330Y1760330D01*
X788670Y1751000D01*
X778670Y1743000D01*
X767000Y1737670D01*
X753670Y1735000D01*
X740330D01*
X727000Y1737670D01*
X715330Y1743000D01*
X705330Y1751000D01*
X698670Y1760330D01*
X697000Y1771000D01*
G01X723670Y1760330D02*
X697000Y1744330D01*
G01X712000Y1700330D02*
X703670Y1692330D01*
X698670Y1683000D01*
X697000Y1671000D01*
X700330Y1659000D01*
X707000Y1649670D01*
X718670Y1643000D01*
X732000Y1641670D01*
X745330Y1644330D01*
X753670Y1651000D01*
X760330Y1660330D01*
X762000Y1669670D01*
X760330Y1679000D01*
X753670Y1691000D01*
X797000Y1687000D01*
Y1651000D01*
G01X661000Y1317330D02*
X589330D01*
X574330Y1312000D01*
X564330Y1301330D01*
X561000Y1288000D01*
X564330Y1274670D01*
X574330Y1264000D01*
X589330Y1258670D01*
X661000D01*
G01X561000Y1188000D02*
X661000D01*
X641000Y1204000D01*
G01X561000D02*
Y1172000D01*
G01X277330Y2244000D02*
X284000Y2234000D01*
X292000Y2227330D01*
X301330Y2224000D01*
X312000Y2227330D01*
X320000Y2234000D01*
X328000Y2244000D01*
X330670Y2257330D01*
Y2324000D01*
G01X404000Y2224000D02*
Y2324000D01*
X388000Y2304000D01*
G01Y2224000D02*
X420000D01*
G01X511000Y2185670D02*
X611000D01*
Y2152330D01*
X606000Y2141670D01*
X599330Y2135000D01*
X586000Y2132330D01*
X572670Y2135000D01*
X564330Y2143000D01*
X559330Y2152330D01*
Y2185670D01*
G01Y2152330D02*
X511000Y2132330D01*
G01Y2059000D02*
X611000D01*
X591000Y2075000D01*
G01X511000D02*
Y2043000D01*
G01X645330Y3190000D02*
Y3290000D01*
X678670D01*
X689330Y3285000D01*
X696000Y3278330D01*
X698670Y3265000D01*
X696000Y3251670D01*
X688000Y3243330D01*
X678670Y3238330D01*
X645330D01*
G01X678670D02*
X698670Y3190000D01*
G01X772000D02*
Y3290000D01*
X756000Y3270000D01*
G01Y3190000D02*
X788000D01*
G01X846670Y3273330D02*
X854670Y3283330D01*
X864000Y3288330D01*
X874670Y3290000D01*
X888000Y3286670D01*
X897330Y3278330D01*
X900000Y3268330D01*
X898670Y3258330D01*
X893330Y3250000D01*
X866670Y3233330D01*
X854670Y3221670D01*
X846670Y3205000D01*
X844000Y3190000D01*
X900000D01*
G01X757000Y3619670D02*
X857000D01*
Y3586330D01*
X852000Y3575670D01*
X845330Y3569000D01*
X832000Y3566330D01*
X818670Y3569000D01*
X810330Y3577000D01*
X805330Y3586330D01*
Y3619670D01*
G01Y3586330D02*
X757000Y3566330D01*
G01X777000Y3522330D02*
X765330Y3514330D01*
X758670Y3503670D01*
X757000Y3491670D01*
X758670Y3481000D01*
X767000Y3470330D01*
X777000Y3463670D01*
X787000Y3462330D01*
X798660Y3465000D01*
X807000Y3474330D01*
X810330Y3483670D01*
Y3495670D01*
G01Y3483670D02*
X815330Y3475670D01*
X823660Y3469000D01*
X833670Y3466330D01*
X843670Y3469000D01*
X852000Y3475670D01*
X857000Y3487670D01*
X855330Y3499670D01*
X848670Y3511670D01*
G01X1450330Y267000D02*
Y367000D01*
X1483670D01*
X1494330Y362000D01*
X1501000Y355330D01*
X1503670Y342000D01*
X1501000Y328670D01*
X1493000Y320330D01*
X1483670Y315330D01*
X1450330D01*
G01X1483670D02*
X1503670Y267000D01*
G01X1551670Y308660D02*
X1561000Y320330D01*
X1569000Y327000D01*
X1579670Y330330D01*
X1589000Y327000D01*
X1595670Y320330D01*
X1601000Y310330D01*
X1602330Y298670D01*
X1601000Y288670D01*
X1595670Y278660D01*
X1587670Y270330D01*
X1578330Y267000D01*
X1567670Y270330D01*
X1558330Y280330D01*
X1553000Y295330D01*
X1551670Y312000D01*
X1554330Y333660D01*
X1558330Y345330D01*
X1565000Y357000D01*
X1574330Y365330D01*
X1583670Y367000D01*
X1593000Y363670D01*
X1599670Y355330D01*
G01X1502000Y1088670D02*
X1602000D01*
Y1055330D01*
X1597000Y1044670D01*
X1590330Y1038000D01*
X1577000Y1035330D01*
X1563670Y1038000D01*
X1555330Y1046000D01*
X1550330Y1055330D01*
Y1088670D01*
G01Y1055330D02*
X1502000Y1035330D01*
G01Y962000D02*
X1602000D01*
X1582000Y978000D01*
G01X1502000D02*
Y946000D01*
G01X1522000Y891330D02*
X1510330Y883330D01*
X1503670Y872670D01*
X1502000Y860670D01*
X1503670Y850000D01*
X1512000Y839330D01*
X1522000Y832670D01*
X1532000Y831330D01*
X1543660Y834000D01*
X1552000Y843330D01*
X1555330Y852670D01*
Y864670D01*
G01Y852670D02*
X1560330Y844670D01*
X1568660Y838000D01*
X1578670Y835330D01*
X1588670Y838000D01*
X1597000Y844670D01*
X1602000Y856670D01*
X1600330Y868670D01*
X1593670Y880670D01*
G01X1273330Y1927000D02*
Y2027000D01*
X1306670D01*
X1317330Y2022000D01*
X1324000Y2015330D01*
X1326670Y2002000D01*
X1324000Y1988670D01*
X1316000Y1980330D01*
X1306670Y1975330D01*
X1273330D01*
G01X1306670D02*
X1326670Y1927000D01*
G01X1374670Y2010330D02*
X1382670Y2020330D01*
X1392000Y2025330D01*
X1402670Y2027000D01*
X1416000Y2023670D01*
X1425330Y2015330D01*
X1428000Y2005330D01*
X1426670Y1995330D01*
X1421330Y1987000D01*
X1394670Y1970330D01*
X1382670Y1958670D01*
X1374670Y1942000D01*
X1372000Y1927000D01*
X1428000D01*
G01X1004000Y2496000D02*
X993330Y2497670D01*
X984000Y2504330D01*
X976000Y2514330D01*
X970670Y2526000D01*
X968000Y2539330D01*
Y2552670D01*
X970670Y2566000D01*
X976000Y2577670D01*
X984000Y2587670D01*
X993330Y2594330D01*
X1004000Y2596000D01*
X1014670Y2594330D01*
X1024000Y2587670D01*
X1032000Y2577670D01*
X1037330Y2566000D01*
X1040000Y2552670D01*
Y2539330D01*
X1037330Y2526000D01*
X1032000Y2514330D01*
X1024000Y2504330D01*
X1014670Y2497670D01*
X1004000Y2496000D01*
G01X1014670Y2522670D02*
X1030670Y2496000D01*
G01X1104000D02*
Y2596000D01*
X1088000Y2576000D01*
G01Y2496000D02*
X1120000D01*
G01X974000Y3215000D02*
X975670Y3225670D01*
X982330Y3235000D01*
X992330Y3243000D01*
X1004000Y3248330D01*
X1017330Y3251000D01*
X1030670D01*
X1044000Y3248330D01*
X1055670Y3243000D01*
X1065670Y3235000D01*
X1072330Y3225670D01*
X1074000Y3215000D01*
X1072330Y3204330D01*
X1065670Y3195000D01*
X1055670Y3187000D01*
X1044000Y3181670D01*
X1030670Y3179000D01*
X1017330D01*
X1004000Y3181670D01*
X992330Y3187000D01*
X982330Y3195000D01*
X975670Y3204330D01*
X974000Y3215000D01*
G01X1000670Y3204330D02*
X974000Y3188330D01*
G01X994000Y3144330D02*
X982330Y3136330D01*
X975670Y3125670D01*
X974000Y3113670D01*
X975670Y3103000D01*
X984000Y3092330D01*
X994000Y3085670D01*
X1004000Y3084330D01*
X1015660Y3087000D01*
X1024000Y3096330D01*
X1027330Y3105670D01*
Y3117670D01*
G01Y3105670D02*
X1032330Y3097670D01*
X1040660Y3091000D01*
X1050670Y3088330D01*
X1060670Y3091000D01*
X1069000Y3097670D01*
X1074000Y3109670D01*
X1072330Y3121670D01*
X1065670Y3133670D01*
G01X1411000Y2808000D02*
X1412670Y2818670D01*
X1419330Y2828000D01*
X1429330Y2836000D01*
X1441000Y2841330D01*
X1454330Y2844000D01*
X1467670D01*
X1481000Y2841330D01*
X1492670Y2836000D01*
X1502670Y2828000D01*
X1509330Y2818670D01*
X1511000Y2808000D01*
X1509330Y2797330D01*
X1502670Y2788000D01*
X1492670Y2780000D01*
X1481000Y2774670D01*
X1467670Y2772000D01*
X1454330D01*
X1441000Y2774670D01*
X1429330Y2780000D01*
X1419330Y2788000D01*
X1412670Y2797330D01*
X1411000Y2808000D01*
G01X1437670Y2797330D02*
X1411000Y2781330D01*
G01Y2692000D02*
X1511000D01*
X1439330Y2741330D01*
Y2674670D01*
G01X1250000Y3608670D02*
X1350000D01*
Y3575330D01*
X1345000Y3564670D01*
X1338330Y3558000D01*
X1325000Y3555330D01*
X1311670Y3558000D01*
X1303330Y3566000D01*
X1298330Y3575330D01*
Y3608670D01*
G01Y3575330D02*
X1250000Y3555330D01*
G01Y3466000D02*
X1350000D01*
X1278330Y3515330D01*
Y3448670D01*
G01X2011000Y242000D02*
Y342000D01*
X1961670Y270330D01*
X2028330D01*
G01X2060910Y262000D02*
X2068910Y250330D01*
X2079570Y243670D01*
X2091570Y242000D01*
X2102240Y243670D01*
X2112910Y252000D01*
X2119570Y262000D01*
X2120910Y272000D01*
X2118240Y283660D01*
X2108910Y292000D01*
X2099570Y295330D01*
X2087570D01*
G01X2099570D02*
X2107570Y300330D01*
X2114240Y308660D01*
X2116910Y318670D01*
X2114240Y328670D01*
X2107570Y337000D01*
X2095570Y342000D01*
X2083570Y340330D01*
X2071570Y333670D01*
G01X2160150Y325330D02*
X2168150Y335330D01*
X2177480Y340330D01*
X2188150Y342000D01*
X2201480Y338670D01*
X2210810Y330330D01*
X2213480Y320330D01*
X2212150Y310330D01*
X2206810Y302000D01*
X2180150Y285330D01*
X2168150Y273670D01*
X2160150Y257000D01*
X2157480Y242000D01*
X2213480D01*
G01X2310050Y333670D02*
X2302050Y338670D01*
X2292720Y342000D01*
X2282050D01*
X2270050Y337000D01*
X2260720Y328670D01*
X2254050Y318670D01*
X2248720Y302000D01*
X2247390Y287000D01*
X2250050Y272000D01*
X2254050Y262000D01*
X2262050Y252000D01*
X2271390Y245330D01*
X2280720Y242000D01*
X2290050D01*
X2299390Y245330D01*
X2307390Y250330D01*
X2314050Y257000D01*
G01X2444530Y242000D02*
Y342000D01*
X2476530D01*
X2487200Y337000D01*
X2495200Y325330D01*
X2497870Y312000D01*
X2495200Y298670D01*
X2488530Y288670D01*
X2476530Y283660D01*
X2444530D01*
G01X2566440Y242000D02*
Y342000D01*
X2550440Y322000D01*
G01Y242000D02*
X2582440D01*
G01X1739670Y398000D02*
X1773000Y498000D01*
X1806330Y398000D01*
G01X1794330Y433000D02*
X1751670D01*
G01X1845570Y398000D02*
Y464660D01*
G01Y448000D02*
X1850910Y456330D01*
X1858910Y463000D01*
X1869570Y464660D01*
X1878910Y463000D01*
X1886910Y456330D01*
X1890910Y444670D01*
Y398000D01*
G01X1987480Y498000D02*
Y398000D01*
G01Y413000D02*
X1982150Y404670D01*
X1974150Y399670D01*
X1964810Y398000D01*
X1954150Y401330D01*
X1946150Y409660D01*
X1940810Y419670D01*
X1939480Y431330D01*
X1940810Y443000D01*
X1946150Y453000D01*
X1954150Y461330D01*
X1964810Y464660D01*
X1974150Y463000D01*
X1980810Y459670D01*
X1987480Y453000D01*
G01X2040050Y398000D02*
Y464660D01*
G01Y451330D02*
X2046720Y458000D01*
X2053390Y463000D01*
X2062720Y464660D01*
X2069390Y463000D01*
X2077390Y458000D01*
G01X2153960Y398000D02*
X2145960Y399670D01*
X2137960Y406330D01*
X2132630Y418000D01*
X2129960Y431330D01*
X2132630Y444670D01*
X2137960Y456330D01*
X2145960Y463000D01*
X2153960Y464660D01*
X2161960Y463000D01*
X2169960Y456330D01*
X2175290Y444670D01*
X2176630Y431330D01*
X2175290Y418000D01*
X2169960Y406330D01*
X2161960Y399670D01*
X2153960Y398000D01*
G01X2226530D02*
Y464660D01*
G01Y448000D02*
X2231870Y456330D01*
X2239870Y463000D01*
X2250530Y464660D01*
X2259870Y463000D01*
X2267870Y456330D01*
X2271870Y444670D01*
Y398000D01*
G01X2324440Y443000D02*
X2367110D01*
X2363110Y454670D01*
X2356440Y461330D01*
X2347110Y464660D01*
X2337770Y463000D01*
X2329770Y458000D01*
X2324440Y446330D01*
X2321770Y436330D01*
Y426330D01*
X2324440Y416330D01*
X2331110Y406330D01*
X2339110Y399670D01*
X2348440Y398000D01*
X2357770Y401330D01*
X2367110Y411330D01*
G01X2518920Y498000D02*
X2550920D01*
G01X2534920D02*
Y398000D01*
G01X2518920D02*
X2550920D01*
G01X2630160D02*
X2622160Y399670D01*
X2614160Y406330D01*
X2608830Y418000D01*
X2606160Y431330D01*
X2608830Y444670D01*
X2614160Y456330D01*
X2622160Y463000D01*
X2630160Y464660D01*
X2638160Y463000D01*
X2646160Y456330D01*
X2651490Y444670D01*
X2652830Y431330D01*
X2651490Y418000D01*
X2646160Y406330D01*
X2638160Y399670D01*
X2630160Y398000D01*
G01X2702730D02*
Y464660D01*
G01Y448000D02*
X2708070Y456330D01*
X2716070Y463000D01*
X2726730Y464660D01*
X2736070Y463000D01*
X2744070Y456330D01*
X2748070Y444670D01*
Y398000D01*
G01X2797970Y464660D02*
Y418000D01*
X2803310Y406330D01*
X2811310Y399670D01*
X2820640Y398000D01*
X2829970Y399670D01*
X2837970Y406330D01*
X2843310Y418000D01*
G01Y398000D02*
Y464660D01*
G01X2915880Y498000D02*
Y398000D01*
G01X2897210Y464660D02*
X2934550D01*
G01X1857330Y815000D02*
Y915000D01*
X1890670D01*
X1901330Y910000D01*
X1908000Y903330D01*
X1910670Y890000D01*
X1908000Y876670D01*
X1900000Y868330D01*
X1890670Y863330D01*
X1857330D01*
G01X1890670D02*
X1910670Y815000D01*
G01X1984000D02*
X1993330Y816670D01*
X2004000Y821670D01*
X2010670Y830000D01*
X2013330Y841670D01*
X2010670Y853330D01*
X2002670Y863330D01*
X1990670Y868330D01*
X1977330D01*
X1969330Y871670D01*
X1962670Y880000D01*
X1960000Y891670D01*
X1964000Y903330D01*
X1973330Y911670D01*
X1984000Y915000D01*
X1994670Y911670D01*
X2004000Y903330D01*
X2008000Y891670D01*
X2005330Y880000D01*
X1998670Y871670D01*
X1990670Y868330D01*
X1977330D01*
X1965330Y863330D01*
X1957330Y853330D01*
X1954670Y841670D01*
X1957330Y830000D01*
X1964000Y821670D01*
X1974670Y816670D01*
X1984000Y815000D01*
G01X1983330Y1721000D02*
Y1821000D01*
X2016670D01*
X2027330Y1816000D01*
X2034000Y1809330D01*
X2036670Y1796000D01*
X2034000Y1782670D01*
X2026000Y1774330D01*
X2016670Y1769330D01*
X1983330D01*
G01X2016670D02*
X2036670Y1721000D01*
G01X2107330D02*
X2110000Y1742670D01*
X2114000Y1761000D01*
X2119330Y1777670D01*
X2126000Y1796000D01*
X2136670Y1821000D01*
X2083330D01*
G01X2327000Y2170670D02*
X2427000D01*
Y2137330D01*
X2422000Y2126670D01*
X2415330Y2120000D01*
X2402000Y2117330D01*
X2388670Y2120000D01*
X2380330Y2128000D01*
X2375330Y2137330D01*
Y2170670D01*
G01Y2137330D02*
X2327000Y2117330D01*
G01Y2044000D02*
X2427000D01*
X2407000Y2060000D01*
G01X2327000D02*
Y2028000D01*
G01X2368660Y1969330D02*
X2380330Y1960000D01*
X2387000Y1952000D01*
X2390330Y1941330D01*
X2387000Y1932000D01*
X2380330Y1925330D01*
X2370330Y1920000D01*
X2358670Y1918670D01*
X2348670Y1920000D01*
X2338660Y1925330D01*
X2330330Y1933330D01*
X2327000Y1942670D01*
X2330330Y1953330D01*
X2340330Y1962670D01*
X2355330Y1968000D01*
X2372000Y1969330D01*
X2393660Y1966670D01*
X2405330Y1962670D01*
X2417000Y1956000D01*
X2425330Y1946670D01*
X2427000Y1937330D01*
X2423670Y1928000D01*
X2415330Y1921330D01*
G01X1941000Y2574000D02*
X1942670Y2584670D01*
X1949330Y2594000D01*
X1959330Y2602000D01*
X1971000Y2607330D01*
X1984330Y2610000D01*
X1997670D01*
X2011000Y2607330D01*
X2022670Y2602000D01*
X2032670Y2594000D01*
X2039330Y2584670D01*
X2041000Y2574000D01*
X2039330Y2563330D01*
X2032670Y2554000D01*
X2022670Y2546000D01*
X2011000Y2540670D01*
X1997670Y2538000D01*
X1984330D01*
X1971000Y2540670D01*
X1959330Y2546000D01*
X1949330Y2554000D01*
X1942670Y2563330D01*
X1941000Y2574000D01*
G01X1967670Y2563330D02*
X1941000Y2547330D01*
G01X1982660Y2499330D02*
X1994330Y2490000D01*
X2001000Y2482000D01*
X2004330Y2471330D01*
X2001000Y2462000D01*
X1994330Y2455330D01*
X1984330Y2450000D01*
X1972670Y2448670D01*
X1962670Y2450000D01*
X1952660Y2455330D01*
X1944330Y2463330D01*
X1941000Y2472670D01*
X1944330Y2483330D01*
X1954330Y2492670D01*
X1969330Y2498000D01*
X1986000Y2499330D01*
X2007660Y2496670D01*
X2019330Y2492670D01*
X2031000Y2486000D01*
X2039330Y2476670D01*
X2041000Y2467330D01*
X2037670Y2458000D01*
X2029330Y2451330D01*
G01X2010000Y2118000D02*
X2011670Y2128670D01*
X2018330Y2138000D01*
X2028330Y2146000D01*
X2040000Y2151330D01*
X2053330Y2154000D01*
X2066670D01*
X2080000Y2151330D01*
X2091670Y2146000D01*
X2101670Y2138000D01*
X2108330Y2128670D01*
X2110000Y2118000D01*
X2108330Y2107330D01*
X2101670Y2098000D01*
X2091670Y2090000D01*
X2080000Y2084670D01*
X2066670Y2082000D01*
X2053330D01*
X2040000Y2084670D01*
X2028330Y2090000D01*
X2018330Y2098000D01*
X2011670Y2107330D01*
X2010000Y2118000D01*
G01X2036670Y2107330D02*
X2010000Y2091330D01*
G01X2093330Y2043330D02*
X2103330Y2035330D01*
X2108330Y2026000D01*
X2110000Y2015330D01*
X2106670Y2002000D01*
X2098330Y1992670D01*
X2088330Y1990000D01*
X2078330Y1991330D01*
X2070000Y1996670D01*
X2053330Y2023330D01*
X2041670Y2035330D01*
X2025000Y2043330D01*
X2010000Y2046000D01*
Y1990000D01*
G01X2055000Y3060670D02*
X2155000D01*
Y3027330D01*
X2150000Y3016670D01*
X2143330Y3010000D01*
X2130000Y3007330D01*
X2116670Y3010000D01*
X2108330Y3018000D01*
X2103330Y3027330D01*
Y3060670D01*
G01Y3027330D02*
X2055000Y3007330D01*
G01Y2934000D02*
X2155000D01*
X2135000Y2950000D01*
G01X2055000D02*
Y2918000D01*
G01Y2818000D02*
X2155000D01*
X2083330Y2867330D01*
Y2800670D01*
G01X1713000Y3619670D02*
X1813000D01*
Y3586330D01*
X1808000Y3575670D01*
X1801330Y3569000D01*
X1788000Y3566330D01*
X1774670Y3569000D01*
X1766330Y3577000D01*
X1761330Y3586330D01*
Y3619670D01*
G01Y3586330D02*
X1713000Y3566330D01*
G01Y3493000D02*
X1813000D01*
X1793000Y3509000D01*
G01X1713000D02*
Y3477000D01*
G01X1728000Y3422330D02*
X1719670Y3414330D01*
X1714670Y3405000D01*
X1713000Y3393000D01*
X1716330Y3381000D01*
X1723000Y3371670D01*
X1734670Y3365000D01*
X1748000Y3363670D01*
X1761330Y3366330D01*
X1769670Y3373000D01*
X1776330Y3382330D01*
X1778000Y3391670D01*
X1776330Y3401000D01*
X1769670Y3413000D01*
X1813000Y3409000D01*
Y3373000D01*
G01X2176000Y3532000D02*
X2177670Y3542670D01*
X2184330Y3552000D01*
X2194330Y3560000D01*
X2206000Y3565330D01*
X2219330Y3568000D01*
X2232670D01*
X2246000Y3565330D01*
X2257670Y3560000D01*
X2267670Y3552000D01*
X2274330Y3542670D01*
X2276000Y3532000D01*
X2274330Y3521330D01*
X2267670Y3512000D01*
X2257670Y3504000D01*
X2246000Y3498670D01*
X2232670Y3496000D01*
X2219330D01*
X2206000Y3498670D01*
X2194330Y3504000D01*
X2184330Y3512000D01*
X2177670Y3521330D01*
X2176000Y3532000D01*
G01X2202670Y3521330D02*
X2176000Y3505330D01*
G01X2187660Y3454670D02*
X2179330Y3445330D01*
X2176000Y3434670D01*
X2179330Y3424000D01*
X2189330Y3414670D01*
X2204330Y3408000D01*
X2219330Y3405330D01*
X2237670D01*
X2252670Y3408000D01*
X2266000Y3414670D01*
X2272670Y3422670D01*
X2276000Y3432000D01*
X2272670Y3442670D01*
X2266000Y3450670D01*
X2256000Y3456000D01*
X2242660Y3458670D01*
X2231000Y3456000D01*
X2219330Y3449330D01*
X2212660Y3441330D01*
X2211000Y3432000D01*
X2214330Y3421330D01*
X2222670Y3413330D01*
X2237670Y3405330D01*
G01X2538000Y700000D02*
X2527330Y701670D01*
X2518000Y708330D01*
X2510000Y718330D01*
X2504670Y730000D01*
X2502000Y743330D01*
Y756670D01*
X2504670Y770000D01*
X2510000Y781670D01*
X2518000Y791670D01*
X2527330Y798330D01*
X2538000Y800000D01*
X2548670Y798330D01*
X2558000Y791670D01*
X2566000Y781670D01*
X2571330Y770000D01*
X2574000Y756670D01*
Y743330D01*
X2571330Y730000D01*
X2566000Y718330D01*
X2558000Y708330D01*
X2548670Y701670D01*
X2538000Y700000D01*
G01X2548670Y726670D02*
X2564670Y700000D01*
G01X2638000D02*
X2647330Y701670D01*
X2658000Y706670D01*
X2664670Y715000D01*
X2667330Y726670D01*
X2664670Y738330D01*
X2656670Y748330D01*
X2644670Y753330D01*
X2631330D01*
X2623330Y756670D01*
X2616670Y765000D01*
X2614000Y776670D01*
X2618000Y788330D01*
X2627330Y796670D01*
X2638000Y800000D01*
X2648670Y796670D01*
X2658000Y788330D01*
X2662000Y776670D01*
X2659330Y765000D01*
X2652670Y756670D01*
X2644670Y753330D01*
X2631330D01*
X2619330Y748330D01*
X2611330Y738330D01*
X2608670Y726670D01*
X2611330Y715000D01*
X2618000Y706670D01*
X2628670Y701670D01*
X2638000Y700000D01*
G01X3075330Y1137000D02*
Y1237000D01*
X3108670D01*
X3119330Y1232000D01*
X3126000Y1225330D01*
X3128670Y1212000D01*
X3126000Y1198670D01*
X3118000Y1190330D01*
X3108670Y1185330D01*
X3075330D01*
G01X3108670D02*
X3128670Y1137000D01*
G01X3202000D02*
Y1237000D01*
X3186000Y1217000D01*
G01Y1137000D02*
X3218000D01*
G01X3302000Y1237000D02*
X3291330Y1233670D01*
X3283330Y1225330D01*
X3278000Y1215330D01*
X3274000Y1202000D01*
X3272670Y1187000D01*
X3274000Y1172000D01*
X3278000Y1158670D01*
X3283330Y1148660D01*
X3291330Y1140330D01*
X3302000Y1137000D01*
X3312670Y1140330D01*
X3320670Y1148660D01*
X3326000Y1158670D01*
X3330000Y1172000D01*
X3331330Y1187000D01*
X3330000Y1202000D01*
X3326000Y1215330D01*
X3320670Y1225330D01*
X3312670Y1233670D01*
X3302000Y1237000D01*
G01X2391330Y1404000D02*
Y1504000D01*
X2424670D01*
X2435330Y1499000D01*
X2442000Y1492330D01*
X2444670Y1479000D01*
X2442000Y1465670D01*
X2434000Y1457330D01*
X2424670Y1452330D01*
X2391330D01*
G01X2424670D02*
X2444670Y1404000D01*
G01X2495330Y1415660D02*
X2504670Y1407330D01*
X2515330Y1404000D01*
X2526000Y1407330D01*
X2535330Y1417330D01*
X2542000Y1432330D01*
X2544670Y1447330D01*
Y1465670D01*
X2542000Y1480670D01*
X2535330Y1494000D01*
X2527330Y1500670D01*
X2518000Y1504000D01*
X2507330Y1500670D01*
X2499330Y1494000D01*
X2494000Y1484000D01*
X2491330Y1470660D01*
X2494000Y1459000D01*
X2500670Y1447330D01*
X2508670Y1440660D01*
X2518000Y1439000D01*
X2528670Y1442330D01*
X2536670Y1450670D01*
X2544670Y1465670D01*
G01X2654000Y2591000D02*
X2655670Y2601670D01*
X2662330Y2611000D01*
X2672330Y2619000D01*
X2684000Y2624330D01*
X2697330Y2627000D01*
X2710670D01*
X2724000Y2624330D01*
X2735670Y2619000D01*
X2745670Y2611000D01*
X2752330Y2601670D01*
X2754000Y2591000D01*
X2752330Y2580330D01*
X2745670Y2571000D01*
X2735670Y2563000D01*
X2724000Y2557670D01*
X2710670Y2555000D01*
X2697330D01*
X2684000Y2557670D01*
X2672330Y2563000D01*
X2662330Y2571000D01*
X2655670Y2580330D01*
X2654000Y2591000D01*
G01X2680670Y2580330D02*
X2654000Y2564330D01*
G01Y2491000D02*
X2754000D01*
X2734000Y2507000D01*
G01X2654000D02*
Y2475000D01*
G01X2754000Y2391000D02*
X2750670Y2401670D01*
X2742330Y2409670D01*
X2732330Y2415000D01*
X2719000Y2419000D01*
X2704000Y2420330D01*
X2689000Y2419000D01*
X2675670Y2415000D01*
X2665660Y2409670D01*
X2657330Y2401670D01*
X2654000Y2391000D01*
X2657330Y2380330D01*
X2665660Y2372330D01*
X2675670Y2367000D01*
X2689000Y2363000D01*
X2704000Y2361670D01*
X2719000Y2363000D01*
X2732330Y2367000D01*
X2742330Y2372330D01*
X2750670Y2380330D01*
X2754000Y2391000D01*
G01X2781190Y3139230D02*
Y3239230D01*
X2814530D01*
X2825190Y3234230D01*
X2831860Y3227560D01*
X2834530Y3214230D01*
X2831860Y3200900D01*
X2823860Y3192560D01*
X2814530Y3187560D01*
X2781190D01*
G01X2814530D02*
X2834530Y3139230D01*
G01X2907860D02*
Y3239230D01*
X2891860Y3219230D01*
G01Y3139230D02*
X2923860D01*
G01X3007860D02*
Y3239230D01*
X2991860Y3219230D01*
G01Y3139230D02*
X3023860D01*
G01X3660000Y580670D02*
X3650000Y574000D01*
X3643330Y566000D01*
X3640000Y556670D01*
X3643330Y546000D01*
X3650000Y538000D01*
X3660000Y530000D01*
X3673330Y527330D01*
X3740000D01*
G01X3723330Y479330D02*
X3733330Y471330D01*
X3738330Y462000D01*
X3740000Y451330D01*
X3736670Y438000D01*
X3728330Y428670D01*
X3718330Y426000D01*
X3708330Y427330D01*
X3700000Y432670D01*
X3683330Y459330D01*
X3671670Y471330D01*
X3655000Y479330D01*
X3640000Y482000D01*
Y426000D01*
G01X3243000Y3377670D02*
X3233000Y3371000D01*
X3226330Y3363000D01*
X3223000Y3353670D01*
X3226330Y3343000D01*
X3233000Y3335000D01*
X3243000Y3327000D01*
X3256330Y3324330D01*
X3323000D01*
G01X3243000Y3280330D02*
X3231330Y3272330D01*
X3224670Y3261670D01*
X3223000Y3249670D01*
X3224670Y3239000D01*
X3233000Y3228330D01*
X3243000Y3221670D01*
X3253000Y3220330D01*
X3264660Y3223000D01*
X3273000Y3232330D01*
X3276330Y3241670D01*
Y3253670D01*
G01Y3241670D02*
X3281330Y3233670D01*
X3289660Y3227000D01*
X3299670Y3224330D01*
X3309670Y3227000D01*
X3318000Y3233670D01*
X3323000Y3245670D01*
X3321330Y3257670D01*
X3314670Y3269670D01*
G01X3628330Y2747000D02*
X3635000Y2737000D01*
X3643000Y2730330D01*
X3652330Y2727000D01*
X3663000Y2730330D01*
X3671000Y2737000D01*
X3679000Y2747000D01*
X3681670Y2760330D01*
Y2827000D01*
G01X3771000Y2727000D02*
Y2827000D01*
X3721670Y2755330D01*
X3788330D01*
G54D11*
G01X239190Y908280D02*
Y1309600D01*
G01X500810D02*
Y908280D01*
G01D02*
X239190D01*
G01X1137720Y745190D02*
X736400D01*
G01D02*
Y854410D01*
G01D02*
X714810Y876000D01*
G01D02*
X736400Y897590D01*
G01D02*
Y1006810D01*
G01D02*
X1137720D01*
G01X1192880Y1313750D02*
X786480D01*
G01D02*
Y1504250D01*
G01D02*
X1192880D01*
G01X239190Y1309600D02*
X348410D01*
G01D02*
X370000Y1331190D01*
G01D02*
X391590Y1309600D01*
G01D02*
X500810D01*
G01X204500Y3248870D02*
Y2372570D01*
G01D02*
X585500D01*
G01D02*
Y3248870D01*
G01X665750Y1870120D02*
Y2276520D01*
G01D02*
X856250D01*
G01Y1870120D02*
X665750D01*
G01X585500Y3248870D02*
X204500D01*
G01X893250Y2726480D02*
X702750D01*
G01D02*
Y3132880D01*
G01D02*
X893250D01*
G01X1368880Y221750D02*
X962480D01*
G01D02*
Y412250D01*
G01X1368880D02*
Y221750D01*
G01X962480Y412250D02*
X1368880D01*
G01X1220750Y777120D02*
Y1183520D01*
G01X1411250D02*
Y777120D01*
G01D02*
X1220750D01*
G01X1137720Y1006810D02*
Y745190D01*
G01X1497520Y1866250D02*
Y1675750D01*
G01D02*
X1091120D01*
G01D02*
Y1866250D01*
G01X1192880Y1504250D02*
Y1313750D01*
G01X1220750Y1183520D02*
X1411250D01*
G01X1992880Y1484750D02*
X1586480D01*
G01D02*
Y1675250D01*
G01D02*
X1992880D01*
G01X856250Y2276520D02*
Y1870120D01*
G01X1091120Y1866250D02*
X1497520D01*
G01X893250Y3132880D02*
Y2726480D01*
G01X933750Y3393120D02*
Y3799520D01*
G01D02*
X1124250D01*
G01D02*
Y3393120D01*
G01D02*
X933750D01*
G01X1406750D02*
Y3799520D01*
G01D02*
X1597250D01*
G01D02*
Y3393120D01*
G01D02*
X1406750D01*
G01X2495880Y810750D02*
X2089480D01*
G01D02*
Y1001250D01*
G01D02*
X2495880D01*
G01X1992880Y1675250D02*
Y1484750D01*
G01X2304120Y1363250D02*
X2710520D01*
G01Y1172750D02*
X2304120D01*
G01D02*
Y1363250D01*
G01X2211750Y2824120D02*
Y3230520D01*
G01D02*
X2402250D01*
G01Y2824120D02*
X2211750D01*
G01X1904750Y3398120D02*
Y3804520D01*
G01D02*
X2095250D01*
G01D02*
Y3398120D01*
G01D02*
X1904750D01*
G01X2495880Y1001250D02*
Y810750D01*
G01X2797120Y1494250D02*
X3203520D01*
G01Y1303750D02*
X2797120D01*
G01D02*
Y1494250D01*
G01X2704250Y2151880D02*
Y1745480D01*
G01D02*
X2513750D01*
G01D02*
Y2151880D01*
G01X2710520Y1363250D02*
Y1172750D01*
G01X2513750Y2151880D02*
X2704250D01*
G01X2402250Y3230520D02*
Y2824120D01*
G01X3181880Y3362750D02*
X2775480D01*
G01D02*
Y3553250D01*
G01D02*
X3181880D01*
G01X3384500Y1542870D02*
Y666570D01*
G01D02*
X3765500D01*
G01D02*
Y1542870D01*
G01D02*
X3384500D01*
G01X3379500Y1803130D02*
X3760500D01*
G01D02*
Y2679430D01*
G01X3379500D02*
Y1803130D01*
G01X3203520Y1494250D02*
Y1303750D01*
G01X3389500Y3851870D02*
Y2975570D01*
G01D02*
X3770500D01*
G01D02*
Y3851870D01*
G01X3760500Y2679430D02*
X3379500D01*
G01X3770500Y3851870D02*
X3389500D01*
G01X3181880Y3553250D02*
Y3362750D01*
G54D12*
G01X502720Y732260D02*
Y427460D01*
X360480D01*
Y732260D01*
X502720D01*
G01X301740Y1832720D02*
X606540D01*
Y1690480D01*
X301740D01*
Y1832720D01*
G01X1382720Y2438260D02*
Y2133460D01*
X1240480D01*
Y2438260D01*
X1382720D01*
G01X1454260Y2972280D02*
X1149460D01*
Y3114520D01*
X1454260D01*
Y2972280D01*
G01X2098740Y2514720D02*
X2403540D01*
Y2372480D01*
X2098740D01*
Y2514720D01*
G01X1644740Y2169720D02*
X1949540D01*
Y2027480D01*
X1644740D01*
Y2169720D01*
G01X1932260Y2695280D02*
X1627460D01*
Y2837520D01*
X1932260D01*
Y2695280D01*
G01X2348740Y3679720D02*
X2653540D01*
Y3537480D01*
X2348740D01*
Y3679720D01*
G01X3029260Y667280D02*
X2724460D01*
Y809520D01*
X3029260D01*
Y667280D01*
G01X3130260Y2504280D02*
X2825460D01*
Y2646520D01*
X3130260D01*
Y2504280D01*
M02*
